<svg width="60" height="60" viewBox="0 0 60 60" fill="none" xmlns="http://www.w3.org/2000/svg">
<path d="M24.2478 29.9945L23.7618 29.7148L23.2763 29.9945L23.7618 30.2752L24.2478 29.9945Z" fill="#5B2907"/>
<path d="M23.7559 32.8358L25.9519 34.1004V34.3658L23.7586 33.0869L23.7559 32.8358Z" fill="#5B2907"/>
<path d="M23.7559 32.8357L23.9774 32.7074L26.1716 33.9739L25.9519 34.1003L23.7559 32.8357Z" fill="#6D360C"/>
<path d="M26.8288 38.0991L25.4903 28.7078L25.0015 28.9902L25.9172 37.5716L26.8288 38.0991Z" fill="#6D360C"/>
<path d="M26.1715 34.4922L23.9755 35.7577V36.0231L26.1688 34.7446L26.1715 34.4922Z" fill="#B75513"/>
<path d="M26.1716 34.4923L25.95 34.3649L23.7559 35.6309L23.9756 35.7578L26.1716 34.4923Z" fill="#5B2907"/>
<path d="M23.7559 32.8639L21.5599 34.128V34.3934L23.754 33.115L23.7559 32.8639Z" fill="#B75513"/>
<path d="M23.7559 32.8639L23.5339 32.7351L21.3406 34.002L21.5599 34.128L23.7559 32.8639Z" fill="#5B2907"/>
<path d="M23.7619 39.871V29.7148L24.2506 29.9968L24.6743 39.3448L23.7619 39.871Z" fill="#A34F11"/>
<path d="M26.8288 38.0991L25.4903 28.7078L25.0015 28.9902" fill="#5B2907"/>
<path d="M26.8288 38.0991L25.4903 28.7078L25.9786 28.9902L27.7408 37.5716L26.8288 38.0991Z" fill="#A34F11"/>
<path d="M25.9759 28.9875L25.4903 28.7078L25.0043 28.9875L25.4903 29.2685L25.9759 28.9875Z" fill="#5B2907"/>
<path d="M20.6954 38.0991L22.0339 28.7078L21.5455 28.9902L19.7829 37.5716L20.6954 38.0991Z" fill="#6D360C"/>
<path d="M20.6954 38.0991L22.0339 28.7078L21.5455 28.9902" fill="#5B2907"/>
<path d="M20.6954 38.0991L22.0339 28.7078L22.5226 28.9902L21.6074 37.5716L20.6954 38.0991Z" fill="#A34F11"/>
<path d="M21.3406 34.4922L23.5366 35.7577V36.0231L21.3434 34.7446L21.3406 34.4922Z" fill="#5B2907"/>
<path d="M21.3406 34.4923L21.5626 34.3649L23.7559 35.6309L23.5366 35.7578L21.3406 34.4923Z" fill="#6D360C"/>
<path d="M23.7619 39.871V29.7148L23.2735 29.9968L22.8499 39.3448L23.7619 39.871Z" fill="#6D360C"/>
<path d="M23.7619 39.871V29.7148L23.2735 29.9968" fill="#5B2907"/>
<path d="M22.5208 28.9875L22.0338 28.7078L21.5483 28.9875L22.0338 29.2685L22.5208 28.9875Z" fill="#5B2907"/>
<path d="M23.7577 30.1335V31.2772L20.7979 29.563V28.4216L23.7577 30.1335Z" fill="#BA7625"/>
<path d="M23.7619 30.1335V31.2772L26.7212 29.563V28.4216L23.7619 30.1335Z" fill="#A3540D"/>
<path d="M23.7619 30.1335V30.7044L26.7212 29.563V28.4216L23.7619 30.1335Z" fill="#91480C"/>
<path d="M20.7979 27.8497V28.9907L23.7577 30.7043V29.5616L20.7979 27.8497Z" fill="#A34D0D"/>
<path d="M23.7577 30.7043V29.5616L20.7979 27.8497" fill="#934607"/>
<path d="M23.7619 29.5616V30.7043L26.7212 28.9907V27.8497L23.7619 29.5616Z" fill="#703207"/>
<path d="M26.7212 27.8497L23.7619 29.5616V30.7043" fill="#5E2905"/>
<path d="M20.7979 27.8497L23.7577 29.5616L24.9475 28.8757L26.7259 27.8497L23.7619 26.1388L20.7979 27.8497Z" fill="#D38129"/>
<path d="M20.7979 27.8497L23.7577 29.5616L24.9475 28.8757L26.7259 27.8497" fill="#B76A1D"/>
<path d="M26.2228 27.7672V27.7662V27.2142H25.5776L24.2432 26.4448C23.9529 26.2768 23.4771 26.2768 23.1868 26.4448L21.8525 27.2142H21.2072V27.763H21.2082C21.2063 27.8747 21.2792 27.9864 21.4256 28.0713L23.1868 29.0881C23.4771 29.2565 23.9529 29.2565 24.2432 29.0881L26.0045 28.0713C26.1323 27.9979 26.2011 27.9028 26.2163 27.8059H26.2228V27.7672Z" fill="#474746"/>
<path d="M23.1868 26.4448L21.8525 27.2142H21.2072V27.7629H21.2082C21.2063 27.8746 21.2792 27.9863 21.4256 28.0712L23.1868 29.088C23.4771 29.2565 23.9529 29.2565 24.2432 29.088V26.4443C23.9529 26.2768 23.4771 26.2768 23.1868 26.4448Z" fill="#1E1E1D"/>
<path d="M26.0051 26.9276L24.2438 25.9108C23.9535 25.7433 23.4777 25.7433 23.1874 25.9108L21.4261 26.9276C21.1349 27.0951 21.1349 27.3702 21.4261 27.5377L23.1874 28.555C23.4777 28.722 23.9535 28.722 24.2438 28.555L26.0051 27.5377C26.2963 27.3702 26.2963 27.0951 26.0051 26.9276Z" fill="#5B5B59"/>
<path d="M24.2432 25.9108C23.9529 25.7433 23.4771 25.7433 23.1868 25.9108L21.4255 26.9276C21.1343 27.0951 21.1343 27.3702 21.4255 27.5377L23.1868 28.555C23.4771 28.722 23.9529 28.722 24.2432 28.555" fill="#474746"/>
<path d="M22.4622 27.3508C22.5074 27.3767 22.5614 27.3882 22.5822 27.3762C22.6029 27.3647 22.6454 27.3398 22.6759 27.3218C22.7072 27.3047 22.6957 27.2682 22.6495 27.2415C22.6043 27.2152 22.5249 27.2188 22.4737 27.2493C22.4215 27.2784 22.416 27.3236 22.4622 27.3508Z" fill="#3A3A3A"/>
<path d="M22.8425 27.1312C22.8877 27.1575 22.9417 27.1695 22.9625 27.1575C22.9832 27.1455 23.0257 27.1206 23.0571 27.1035C23.0875 27.085 23.076 27.0495 23.0308 27.0223C22.9855 26.9969 22.9057 26.9996 22.854 27.0296C22.8018 27.0596 22.7977 27.1053 22.8425 27.1312Z" fill="#3A3A3A"/>
<path d="M23.2228 26.9133C23.2689 26.9392 23.3229 26.9503 23.3437 26.9392C23.3645 26.9272 23.4069 26.9032 23.4374 26.8847C23.4688 26.8667 23.4572 26.8307 23.412 26.8044C23.3659 26.7781 23.2869 26.7818 23.2343 26.8113C23.1831 26.8404 23.178 26.8861 23.2228 26.9133Z" fill="#3A3A3A"/>
<path d="M23.6035 26.6941C23.6497 26.7204 23.7037 26.7319 23.7245 26.7199C23.7452 26.7084 23.7886 26.6835 23.8182 26.6655C23.8495 26.6479 23.838 26.6124 23.7928 26.5852C23.7466 26.5589 23.6677 26.5621 23.616 26.5925C23.5648 26.6216 23.5592 26.6678 23.6035 26.6941Z" fill="#3A3A3A"/>
<path d="M23.9848 26.4748C24.03 26.5016 24.0849 26.5127 24.1057 26.5007C24.1265 26.4891 24.1689 26.4642 24.1994 26.4467C24.2308 26.4291 24.2192 26.3922 24.1731 26.3668C24.1279 26.3405 24.0485 26.3437 23.9963 26.3737C23.9451 26.4028 23.9395 26.449 23.9848 26.4748Z" fill="#3A3A3A"/>
<path d="M22.9445 27.6361C22.9897 27.6628 23.0437 27.6748 23.0654 27.6628C23.0862 27.6508 23.1277 27.6259 23.1591 27.6084C23.1895 27.5908 23.1789 27.5544 23.1328 27.5281C23.0875 27.5018 23.0077 27.5041 22.956 27.5345C22.9043 27.565 22.8992 27.6107 22.9445 27.6361Z" fill="#3A3A3A"/>
<path d="M23.3248 27.4178C23.3709 27.4436 23.4249 27.4547 23.4457 27.4436C23.4665 27.4316 23.5089 27.4071 23.5403 27.3891C23.5708 27.3711 23.5592 27.3351 23.514 27.3088C23.4679 27.2825 23.3889 27.2858 23.3372 27.3158C23.2851 27.3458 23.2795 27.3919 23.3248 27.4178Z" fill="#3A3A3A"/>
<path d="M23.706 27.199C23.7512 27.2253 23.8052 27.2369 23.826 27.2244C23.8477 27.2129 23.8892 27.1889 23.9206 27.1709C23.9511 27.1529 23.9395 27.1173 23.8943 27.0901C23.8491 27.0643 23.7697 27.067 23.7175 27.0975C23.6663 27.127 23.6612 27.1727 23.706 27.199Z" fill="#3A3A3A"/>
<path d="M24.0868 26.9806C24.1329 27.0065 24.1869 27.018 24.2077 27.006C24.2285 26.994 24.2709 26.9695 24.3014 26.952C24.3328 26.9335 24.3212 26.898 24.2751 26.8712C24.2298 26.8454 24.1505 26.8486 24.0992 26.8782C24.0471 26.9077 24.0415 26.9534 24.0868 26.9806Z" fill="#3A3A3A"/>
<path d="M24.468 26.7614C24.5132 26.7877 24.5672 26.7993 24.5889 26.7873C24.6088 26.7753 24.6512 26.7508 24.6826 26.7333C24.7131 26.7148 24.7016 26.6788 24.6563 26.6525C24.6111 26.6262 24.5312 26.6294 24.4796 26.659C24.4274 26.689 24.4228 26.7356 24.468 26.7614Z" fill="#3A3A3A"/>
<path d="M23.4277 27.9227C23.4729 27.9499 23.5269 27.9605 23.5477 27.949C23.5685 27.9365 23.6109 27.9125 23.6423 27.8941C23.6728 27.877 23.6612 27.8405 23.616 27.8142C23.5698 27.7879 23.4909 27.7911 23.4392 27.8211C23.3871 27.8507 23.3815 27.8964 23.4277 27.9227Z" fill="#3A3A3A"/>
<path d="M23.808 27.7035C23.8542 27.7298 23.9082 27.7413 23.9289 27.7298C23.9497 27.7183 23.9922 27.6933 24.0226 27.6753C24.054 27.6578 24.0425 27.6213 23.9963 27.5955C23.9511 27.5692 23.8712 27.572 23.8195 27.6024C23.7683 27.632 23.7628 27.6776 23.808 27.7035Z" fill="#3A3A3A"/>
<path d="M24.1892 27.4856C24.2345 27.511 24.2885 27.5235 24.3092 27.511C24.33 27.4995 24.3725 27.4741 24.4039 27.457C24.4343 27.439 24.4228 27.403 24.3775 27.3767C24.3314 27.3509 24.2525 27.3536 24.2008 27.3841C24.1486 27.4136 24.1435 27.4598 24.1892 27.4856Z" fill="#3A3A3A"/>
<path d="M24.5695 27.2668C24.6157 27.2926 24.6697 27.3042 24.6905 27.2917C24.7103 27.2811 24.7528 27.2552 24.7842 27.2377C24.8146 27.2206 24.8031 27.1842 24.7579 27.1574C24.7126 27.1311 24.6332 27.1348 24.5811 27.1648C24.5299 27.1943 24.5248 27.2405 24.5695 27.2668Z" fill="#3A3A3A"/>
<path d="M24.9503 27.0476C24.9965 27.0739 25.0505 27.0849 25.0712 27.0739C25.092 27.0614 25.1345 27.0374 25.1658 27.0189C25.1963 27.0019 25.1848 26.9654 25.1386 26.9391C25.0934 26.9133 25.014 26.9151 24.9628 26.946C24.9106 26.9751 24.9051 27.0222 24.9503 27.0476Z" fill="#3A3A3A"/>
<path d="M18.1154 33.5457L17.6294 33.2655L17.1438 33.5457L17.6294 33.8258L18.1154 33.5457Z" fill="#5B2907"/>
<path d="M17.6234 36.3865L19.8189 37.6516V37.916L17.6257 36.6376L17.6234 36.3865Z" fill="#5B2907"/>
<path d="M17.6234 36.3864L17.8449 36.2585L20.0391 37.525L19.8189 37.6515L17.6234 36.3864Z" fill="#6D360C"/>
<path d="M20.6963 41.6498L19.3574 32.2589L18.8691 32.5409L19.7848 41.1228L20.6963 41.6498Z" fill="#6D360C"/>
<path d="M20.0391 38.0433L17.8431 39.3084V39.5738L20.0363 38.2958L20.0391 38.0433Z" fill="#B75513"/>
<path d="M20.0391 38.0434L19.8175 37.9155L17.6234 39.182L17.8431 39.3084L20.0391 38.0434Z" fill="#5B2907"/>
<path d="M17.6234 36.4137L15.4274 37.6792V37.9442L17.6215 36.6657L17.6234 36.4137Z" fill="#B75513"/>
<path d="M17.6234 36.4136L17.4014 36.2858L15.2082 37.5527L15.4274 37.6791L17.6234 36.4136Z" fill="#5B2907"/>
<path d="M17.6294 43.4217V33.2655L18.1191 33.548L18.5419 42.8955L17.6294 43.4217Z" fill="#A34F11"/>
<path d="M20.6963 41.6498L19.3574 32.2589L18.8691 32.5409" fill="#5B2907"/>
<path d="M20.6963 41.6498L19.3574 32.2589L19.8471 32.5409L21.6092 41.1228L20.6963 41.6498Z" fill="#A34F11"/>
<path d="M19.8434 32.5381L19.3574 32.2589L18.8719 32.5381L19.3574 32.8192L19.8434 32.5381Z" fill="#5B2907"/>
<path d="M14.5629 41.6498L15.9014 32.2589L15.4131 32.5409L13.6505 41.1228L14.5629 41.6498Z" fill="#6D360C"/>
<path d="M14.5629 41.6498L15.9014 32.2589L15.4131 32.5409" fill="#5B2907"/>
<path d="M14.5629 41.6498L15.9014 32.2589L16.3911 32.5409L15.4749 41.1228L14.5629 41.6498Z" fill="#A34F11"/>
<path d="M15.2082 38.0433L17.4042 39.3084V39.5738L15.2109 38.2958L15.2082 38.0433Z" fill="#5B2907"/>
<path d="M15.2082 38.0434L15.4302 37.9155L17.6234 39.182L17.4042 39.3084L15.2082 38.0434Z" fill="#6D360C"/>
<path d="M17.6294 43.4217V33.2655L17.1411 33.548L16.7174 42.8955L17.6294 43.4217Z" fill="#6D360C"/>
<path d="M17.6294 43.4217V33.2655L17.1411 33.548" fill="#5B2907"/>
<path d="M16.3883 32.5381L15.9014 32.2589L15.4154 32.5381L15.9014 32.8192L16.3883 32.5381Z" fill="#5B2907"/>
<path d="M17.6257 33.6837V34.8274L14.6654 33.1137V31.9723L17.6257 33.6837Z" fill="#BA7625"/>
<path d="M17.6294 33.6837V34.8274L20.5888 33.1137V31.9723L17.6294 33.6837Z" fill="#A3540D"/>
<path d="M17.6294 33.6837V34.2555L20.5888 33.1137V31.9723L17.6294 33.6837Z" fill="#91480C"/>
<path d="M14.6654 31.4004V32.5418L17.6257 34.2555V33.1118L14.6654 31.4004Z" fill="#A34D0D"/>
<path d="M17.6257 34.2555V33.1118L14.6654 31.4004" fill="#934607"/>
<path d="M17.6294 33.1118V34.2555L20.5888 32.5418V31.4004L17.6294 33.1118Z" fill="#703207"/>
<path d="M20.5888 31.4004L17.6294 33.1118V34.2555" fill="#5E2905"/>
<path d="M14.6654 31.4004L17.6257 33.1118L18.8151 32.4269L20.5934 31.4004L17.6294 29.6899L14.6654 31.4004Z" fill="#D38129"/>
<path d="M14.6654 31.4004L17.6257 33.1118L18.8151 32.4269L20.5934 31.4004" fill="#B76A1D"/>
<path d="M20.0903 31.3174V30.7649H19.4451L18.1108 29.9955C17.8205 29.8275 17.3446 29.8275 17.0543 29.9955L15.72 30.7649H15.0748V31.3137H15.0757C15.0738 31.4254 15.1468 31.537 15.2931 31.622L17.0543 32.6387C17.3446 32.8072 17.8205 32.8072 18.1108 32.6387L19.872 31.622C19.9998 31.5481 20.0686 31.4535 20.0838 31.3561H20.0903V31.3174Z" fill="#474746"/>
<path d="M17.0543 29.9955L15.72 30.7649H15.0748V31.3137H15.0757C15.0738 31.4254 15.1468 31.537 15.2931 31.622L17.0543 32.6387C17.3446 32.8072 17.8205 32.8072 18.1108 32.6387V29.9955C17.8205 29.8275 17.3446 29.8275 17.0543 29.9955Z" fill="#1E1E1D"/>
<path d="M19.8725 30.4787L18.1112 29.4615C17.8209 29.2939 17.3451 29.2939 17.0548 29.4615L15.2935 30.4787C15.0032 30.6458 15.0032 30.9213 15.2935 31.0884L17.0548 32.1052C17.3451 32.2727 17.8209 32.2727 18.1112 32.1052L19.8725 31.0884C20.1637 30.9213 20.1637 30.6458 19.8725 30.4787Z" fill="#5B5B59"/>
<path d="M18.1108 29.4615C17.8205 29.2939 17.3446 29.2939 17.0543 29.4615L15.2931 30.4787C15.0028 30.6458 15.0028 30.9213 15.2931 31.0884L17.0543 32.1052C17.3446 32.2727 17.8205 32.2727 18.1108 32.1052" fill="#474746"/>
<path d="M16.3297 30.9014C16.3749 30.9273 16.4289 30.9388 16.4497 30.9268C16.4705 30.9148 16.5129 30.8903 16.5434 30.8723C16.5748 30.8553 16.5632 30.8183 16.5171 30.792C16.4719 30.7657 16.3925 30.7694 16.3412 30.7994C16.2891 30.829 16.2835 30.8747 16.3297 30.9014Z" fill="#3A3A3A"/>
<path d="M16.71 30.6822C16.7562 30.7085 16.8092 30.7205 16.8309 30.7085C16.8508 30.6961 16.8932 30.6721 16.9246 30.6545C16.9551 30.6361 16.9435 30.6 16.8983 30.5733C16.8531 30.5479 16.7732 30.5507 16.7216 30.5807C16.6699 30.6107 16.6648 30.6559 16.71 30.6822Z" fill="#3A3A3A"/>
<path d="M17.0903 30.4639C17.1365 30.4898 17.1905 30.5008 17.2112 30.4898C17.232 30.4778 17.2745 30.4533 17.3049 30.4353C17.3363 30.4173 17.3248 30.3813 17.2795 30.355C17.2334 30.3287 17.1545 30.3324 17.1028 30.3615C17.0506 30.3915 17.0455 30.4362 17.0903 30.4639Z" fill="#3A3A3A"/>
<path d="M17.4716 30.2447C17.5168 30.2711 17.5708 30.2821 17.5916 30.2706C17.6123 30.2586 17.6557 30.2341 17.6862 30.2161C17.7166 30.1986 17.7051 30.1626 17.6599 30.1358C17.6146 30.1095 17.5348 30.1127 17.4831 30.1432C17.4323 30.1723 17.4268 30.2189 17.4716 30.2447Z" fill="#3A3A3A"/>
<path d="M17.8532 30.0259C17.8985 30.0527 17.9525 30.0638 17.9732 30.0518C17.994 30.0402 18.0365 30.0153 18.0669 29.9973C18.0983 29.9802 18.0868 29.9433 18.0406 29.9179C17.9954 29.8916 17.916 29.8944 17.8639 29.9244C17.8126 29.9535 17.8071 29.9992 17.8532 30.0259Z" fill="#3A3A3A"/>
<path d="M16.812 31.1867C16.8572 31.2135 16.9122 31.2255 16.9329 31.2135C16.9537 31.2015 16.9962 31.1761 17.0266 31.159C17.0571 31.1415 17.0465 31.105 17.0003 31.0787C16.9551 31.0524 16.8757 31.0547 16.8245 31.0852C16.7723 31.1152 16.7668 31.1618 16.812 31.1867Z" fill="#3A3A3A"/>
<path d="M17.1932 30.9684C17.2385 30.9947 17.2925 31.0057 17.3132 30.9947C17.334 30.9827 17.3774 30.9582 17.4079 30.9407C17.4383 30.9222 17.4268 30.8862 17.3815 30.8599C17.3354 30.8336 17.2565 30.8364 17.2048 30.8668C17.1526 30.8964 17.1471 30.9425 17.1932 30.9684Z" fill="#3A3A3A"/>
<path d="M17.5735 30.7496C17.6197 30.7759 17.6728 30.7875 17.6945 30.775C17.7152 30.7635 17.7577 30.739 17.7882 30.7215C17.8195 30.7035 17.8071 30.6679 17.7619 30.6407C17.7166 30.6144 17.6372 30.6176 17.5851 30.6481C17.5339 30.6781 17.5288 30.7233 17.5735 30.7496Z" fill="#3A3A3A"/>
<path d="M17.9539 30.5309C18 30.5572 18.054 30.5683 18.0748 30.5567C18.0956 30.5447 18.138 30.5198 18.1685 30.5027C18.1999 30.4843 18.1883 30.4487 18.1431 30.4215C18.0969 30.3961 18.018 30.3994 17.9663 30.4289C17.9142 30.4584 17.9091 30.5046 17.9539 30.5309Z" fill="#3A3A3A"/>
<path d="M18.3356 30.3125C18.3808 30.3388 18.4348 30.3504 18.4565 30.3379C18.4763 30.3264 18.5188 30.3019 18.5502 30.2844C18.5806 30.2659 18.5691 30.2299 18.5239 30.2036C18.4786 30.1773 18.3988 30.1805 18.3471 30.2105C18.2949 30.2401 18.2903 30.2867 18.3356 30.3125Z" fill="#3A3A3A"/>
<path d="M17.2952 31.4734C17.3405 31.5001 17.3945 31.5112 17.4152 31.4997C17.436 31.4872 17.4785 31.4632 17.5099 31.4447C17.5403 31.4272 17.5288 31.3907 17.4836 31.3644C17.4374 31.3386 17.3585 31.3414 17.3068 31.3714C17.2546 31.4018 17.2491 31.4475 17.2952 31.4734Z" fill="#3A3A3A"/>
<path d="M17.6755 31.2545C17.7217 31.2808 17.7757 31.2924 17.7965 31.2808C17.8172 31.2688 17.8597 31.2444 17.8902 31.2264C17.9215 31.2093 17.91 31.1724 17.8639 31.1465C17.8186 31.1202 17.7392 31.123 17.688 31.1534C17.6359 31.1825 17.6303 31.2287 17.6755 31.2545Z" fill="#3A3A3A"/>
<path d="M18.0568 31.0366C18.102 31.0616 18.156 31.0745 18.1768 31.0616C18.1975 31.05 18.24 31.0246 18.2714 31.0076C18.3019 30.9896 18.2903 30.9536 18.2451 30.9273C18.1989 30.9014 18.12 30.9042 18.0683 30.9346C18.0162 30.9637 18.0115 31.0099 18.0568 31.0366Z" fill="#3A3A3A"/>
<path d="M18.4371 30.8175C18.4832 30.8443 18.5372 30.8553 18.558 30.8429C18.5779 30.8318 18.6212 30.8064 18.6517 30.7889C18.6831 30.7713 18.6706 30.7349 18.6254 30.7086C18.5802 30.6823 18.5008 30.6855 18.4486 30.716C18.3974 30.745 18.3923 30.7912 18.4371 30.8175Z" fill="#3A3A3A"/>
<path d="M18.8183 30.5982C18.8635 30.6245 18.9175 30.6356 18.9383 30.6245C18.9591 30.6121 19.0015 30.5876 19.0329 30.5696C19.0634 30.5525 19.0518 30.5161 19.0066 30.4898C18.9614 30.4639 18.8815 30.4658 18.8298 30.4967C18.7782 30.5262 18.7726 30.5728 18.8183 30.5982Z" fill="#3A3A3A"/>
<path d="M11.9838 37.0961L11.4969 36.8164L11.0109 37.0961L11.4969 37.3758L11.9838 37.0961Z" fill="#5B2907"/>
<path d="M11.4904 39.937L13.6874 41.2021V41.467L11.4932 40.1881L11.4904 39.937Z" fill="#5B2907"/>
<path d="M11.4904 39.9369L11.7134 39.8091L13.9066 41.0755L13.6874 41.202L11.4904 39.9369Z" fill="#6D360C"/>
<path d="M14.5648 45.2008L13.2249 35.809L12.7366 36.0914L13.6523 44.6733L14.5648 45.2008Z" fill="#6D360C"/>
<path d="M13.9066 41.5944L11.7106 42.859V43.1248L13.9048 41.8464L13.9066 41.5944Z" fill="#B75513"/>
<path d="M13.9066 41.5944L13.6846 41.4666L11.4904 42.7326L11.7106 42.859L13.9066 41.5944Z" fill="#5B2907"/>
<path d="M11.4905 39.9647L9.29492 41.2298V41.4947L11.4891 40.2167L11.4905 39.9647Z" fill="#B75513"/>
<path d="M11.4905 39.9647L11.2698 39.8364L9.07568 41.1038L9.29491 41.2298L11.4905 39.9647Z" fill="#5B2907"/>
<path d="M11.4969 46.9718V36.8165L11.9866 37.0985L12.4103 46.4465L11.4969 46.9718Z" fill="#A34F11"/>
<path d="M14.5648 45.2008L13.2249 35.809L12.7366 36.0914" fill="#5B2907"/>
<path d="M14.5648 45.2008L13.2249 35.809L13.7146 36.0914L15.4768 44.6733L14.5648 45.2008Z" fill="#A34F11"/>
<path d="M13.7109 36.0887L13.2249 35.809L12.7394 36.0887L13.2249 36.3702L13.7109 36.0887Z" fill="#5B2907"/>
<path d="M8.43047 45.2008L9.76893 35.809L9.28016 36.0914L7.51801 44.6733L8.43047 45.2008Z" fill="#6D360C"/>
<path d="M8.43048 45.2008L9.76894 35.809L9.28017 36.0914" fill="#5B2907"/>
<path d="M8.43048 45.2008L9.76894 35.809L10.2586 36.0914L9.34248 44.6733L8.43048 45.2008Z" fill="#A34F11"/>
<path d="M9.07568 41.5944L11.2717 42.859V43.1248L9.07845 41.8464L9.07568 41.5944Z" fill="#5B2907"/>
<path d="M9.07568 41.5944L9.29768 41.4666L11.4905 42.7326L11.2717 42.859L9.07568 41.5944Z" fill="#6D360C"/>
<path d="M11.4969 46.9718V36.8165L11.0086 37.0985L10.5849 46.4465L11.4969 46.9718Z" fill="#6D360C"/>
<path d="M11.4969 46.9718V36.8165L11.0086 37.0985" fill="#5B2907"/>
<path d="M10.2559 36.0887L9.76893 35.809L9.28293 36.0887L9.76893 36.3702L10.2559 36.0887Z" fill="#5B2907"/>
<path d="M11.4932 37.2347V38.3779L8.53293 36.6638V35.5233L11.4932 37.2347Z" fill="#BA7625"/>
<path d="M11.4969 37.2347V38.3779L14.4572 36.6638V35.5233L11.4969 37.2347Z" fill="#A3540D"/>
<path d="M11.4969 37.2347V37.8061L14.4572 36.6638V35.5233L11.4969 37.2347Z" fill="#91480C"/>
<path d="M8.53293 34.9514V36.0923L11.4932 37.806V36.6628L8.53293 34.9514Z" fill="#A34D0D"/>
<path d="M11.4932 37.806V36.6628L8.53293 34.9514" fill="#934607"/>
<path d="M11.4969 36.6628V37.806L14.4572 36.0923V34.9514L11.4969 36.6628Z" fill="#703207"/>
<path d="M14.4572 34.9514L11.4969 36.6628V37.806" fill="#5E2905"/>
<path d="M8.53293 34.9514L11.4932 36.6628L12.6826 35.9774L14.4609 34.9514L11.4969 33.2405L8.53293 34.9514Z" fill="#D38129"/>
<path d="M8.53293 34.9514L11.4932 36.6628L12.6826 35.9774L14.4609 34.9514" fill="#B76A1D"/>
<path d="M13.9579 34.8683C13.9579 34.8673 13.9579 34.8673 13.9579 34.8673V34.3158H13.3126L11.9783 33.5464C11.688 33.3784 11.2122 33.3784 10.9219 33.5464L9.58755 34.3158H8.94324V34.8646C8.94139 34.9763 9.01432 35.0879 9.16063 35.1729L10.9219 36.1901C11.2122 36.3576 11.688 36.3576 11.9783 36.1901L13.7395 35.1729C13.8674 35.099 13.9362 35.0044 13.9514 34.907H13.9579V34.8683Z" fill="#474746"/>
<path d="M10.9219 33.5464L9.58755 34.3158H8.94324V34.8646C8.94139 34.9763 9.01432 35.088 9.16063 35.1729L10.9219 36.1901C11.2122 36.3577 11.688 36.3577 11.9783 36.1901V33.546C11.688 33.378 11.2122 33.378 10.9219 33.5464Z" fill="#1E1E1D"/>
<path d="M13.7402 34.0288L11.9789 33.012C11.6886 32.8445 11.2128 32.8445 10.9225 33.012L9.16124 34.0288C8.87094 34.1963 8.87094 34.4714 9.16124 34.6389L10.9225 35.6557C11.2128 35.8237 11.6886 35.8237 11.9789 35.6557L13.7402 34.6389C14.0309 34.4714 14.0309 34.1968 13.7402 34.0288Z" fill="#5B5B59"/>
<path d="M11.9783 33.012C11.688 32.8445 11.2122 32.8445 10.9219 33.012L9.16063 34.0288C8.87032 34.1963 8.87032 34.4714 9.16063 34.6389L10.9219 35.6557C11.2122 35.8237 11.688 35.8237 11.9783 35.6557" fill="#474746"/>
<path d="M10.1973 34.452C10.2425 34.4788 10.2965 34.4898 10.3173 34.4778C10.338 34.4658 10.3805 34.4414 10.4119 34.4234C10.4423 34.4063 10.4308 34.3694 10.3846 34.3431C10.3394 34.3168 10.26 34.3205 10.2088 34.3505C10.1576 34.3805 10.1511 34.4252 10.1973 34.452Z" fill="#3A3A3A"/>
<path d="M10.5776 34.2327C10.6237 34.259 10.6768 34.271 10.6985 34.259C10.7193 34.2465 10.7617 34.2221 10.7922 34.205C10.8226 34.1861 10.8111 34.1505 10.7659 34.1238C10.7206 34.0979 10.6413 34.1011 10.5891 34.1311C10.5379 34.1607 10.5323 34.2064 10.5776 34.2327Z" fill="#3A3A3A"/>
<path d="M10.9579 34.0144C11.004 34.0398 11.058 34.0513 11.0788 34.0398C11.0996 34.0283 11.142 34.0038 11.1734 33.9858C11.2039 33.9678 11.1923 33.9318 11.1471 33.905C11.1009 33.8792 11.022 33.8829 10.9703 33.9119C10.9182 33.9415 10.9131 33.9872 10.9579 34.0144Z" fill="#3A3A3A"/>
<path d="M11.3391 33.7957C11.3843 33.822 11.4383 33.8331 11.4591 33.8215C11.4799 33.8095 11.5232 33.7851 11.5537 33.7675C11.5842 33.7491 11.5726 33.7135 11.5274 33.6868C11.4822 33.6605 11.4023 33.6632 11.3506 33.6941C11.2994 33.7223 11.2943 33.7694 11.3391 33.7957Z" fill="#3A3A3A"/>
<path d="M11.7208 33.5764C11.766 33.6027 11.82 33.6143 11.8408 33.6023C11.8616 33.5903 11.904 33.5658 11.9345 33.5478C11.9659 33.5307 11.9543 33.4938 11.9082 33.468C11.863 33.4421 11.7836 33.4449 11.7323 33.4749C11.6802 33.5044 11.6746 33.5496 11.7208 33.5764Z" fill="#3A3A3A"/>
<path d="M10.6805 34.7376C10.7257 34.7644 10.7797 34.7759 10.8005 34.7644C10.8213 34.7524 10.8637 34.727 10.8951 34.7104C10.9246 34.6919 10.914 34.6559 10.8679 34.6296C10.8226 34.6033 10.7433 34.6056 10.692 34.6361C10.6399 34.6656 10.6343 34.7123 10.6805 34.7376Z" fill="#3A3A3A"/>
<path d="M11.0608 34.5189C11.106 34.5452 11.16 34.5563 11.1808 34.5452C11.2016 34.5332 11.2449 34.5087 11.2754 34.4907C11.3059 34.4727 11.2943 34.4367 11.2491 34.4104C11.2029 34.3841 11.124 34.3869 11.0723 34.4174C11.0206 34.4478 11.0146 34.4926 11.0608 34.5189Z" fill="#3A3A3A"/>
<path d="M11.4411 34.3002C11.4873 34.3265 11.5403 34.338 11.562 34.3256C11.5828 34.314 11.6253 34.2895 11.6557 34.2715C11.6871 34.254 11.6747 34.2185 11.6303 34.1912C11.5842 34.1649 11.5053 34.1682 11.4527 34.1986C11.4014 34.2286 11.3959 34.2739 11.4411 34.3002Z" fill="#3A3A3A"/>
<path d="M11.8223 34.0818C11.8676 34.1081 11.9216 34.1192 11.9423 34.1072C11.9631 34.0956 12.0056 34.0707 12.037 34.0536C12.0674 34.0352 12.0559 33.9996 12.0107 33.9724C11.9645 33.947 11.8856 33.9503 11.8339 33.9798C11.7817 34.0093 11.7776 34.0555 11.8223 34.0818Z" fill="#3A3A3A"/>
<path d="M12.2027 33.8635C12.2479 33.8894 12.3028 33.9014 12.3236 33.8884C12.3434 33.8769 12.3868 33.8524 12.4173 33.8344C12.4477 33.8164 12.4362 33.7804 12.391 33.7541C12.3457 33.7283 12.2663 33.7311 12.2142 33.7606C12.1625 33.7906 12.1579 33.8363 12.2027 33.8635Z" fill="#3A3A3A"/>
<path d="M11.1628 35.0242C11.208 35.051 11.262 35.0621 11.2828 35.0501C11.3045 35.0381 11.347 35.0136 11.3774 34.9956C11.4088 34.9781 11.3963 34.9416 11.3511 34.9153C11.305 34.889 11.2265 34.8922 11.1743 34.9222C11.1222 34.9522 11.1176 34.9984 11.1628 35.0242Z" fill="#3A3A3A"/>
<path d="M11.5431 34.8055C11.5893 34.8313 11.6433 34.8428 11.664 34.8313C11.6848 34.8193 11.7273 34.7948 11.7577 34.7768C11.7891 34.7588 11.7776 34.7224 11.7323 34.697C11.6862 34.6711 11.6073 34.6735 11.5556 34.7039C11.5034 34.733 11.4979 34.7787 11.5431 34.8055Z" fill="#3A3A3A"/>
<path d="M11.9243 34.5867C11.9696 34.6121 12.0236 34.6246 12.0443 34.6121C12.0651 34.6006 12.1085 34.5752 12.139 34.5581C12.1694 34.5401 12.1579 34.5041 12.1126 34.4783C12.0674 34.4515 11.988 34.4547 11.9359 34.4852C11.8837 34.5143 11.8791 34.5609 11.9243 34.5867Z" fill="#3A3A3A"/>
<path d="M12.3046 34.3679C12.3508 34.3942 12.4048 34.4058 12.4256 34.3933C12.4463 34.3822 12.4888 34.3568 12.5193 34.3393C12.5506 34.3218 12.5382 34.2853 12.493 34.259C12.4477 34.2327 12.3683 34.2359 12.3162 34.2664C12.265 34.2955 12.2594 34.3416 12.3046 34.3679Z" fill="#3A3A3A"/>
<path d="M12.6859 34.1487C12.7311 34.175 12.7851 34.1856 12.8059 34.175C12.8267 34.1626 12.8691 34.1381 12.9005 34.1201C12.931 34.103 12.9194 34.0661 12.8742 34.0398C12.829 34.0144 12.7491 34.0167 12.6974 34.0467C12.6453 34.0767 12.6402 34.1238 12.6859 34.1487Z" fill="#3A3A3A"/>
<path d="M26.8214 44.9285V53.8348L44.7009 43.5121V34.6067L26.8214 44.9285Z" fill="#E26B0A"/>
<path d="M17.8809 39.7676V48.6734L26.8214 53.8348V44.9285L17.8809 39.7676Z" fill="#FFA300"/>
<path d="M26.8214 43.2748V52.1806L44.7009 41.8579V32.952L26.8214 43.2748Z" fill="#6B878E"/>
<path d="M44.7009 32.952L26.8214 43.2748V52.1806" fill="#527075"/>
<path d="M17.8809 38.1139V47.0197L26.8214 52.1807V43.2748L17.8809 38.1139Z" fill="#A7D1D3"/>
<path d="M26.8214 52.1807V43.2748L17.8809 38.1139" fill="#91BBBF"/>
<path d="M35.7609 27.7911L17.8809 38.1139L26.8214 43.2748L44.7009 32.9521L35.7609 27.7911Z" fill="#295150"/>
<path d="M35.6622 28.2887L18.7472 38.0585L26.9197 42.7773L43.8328 33.0065L35.6622 28.2887Z" fill="#1C3836"/>
<path d="M19.1442 38.2875L26.9197 42.7773L43.4368 33.2341L35.6622 28.7466L19.1442 38.2875Z" fill="#132B2A"/>
<path d="M40.5909 34.8781V32.9973H42.942V33.5193L40.5909 34.8781Z" fill="#0C2121"/>
<path d="M19.1442 38.2874L26.9197 42.7772L43.4368 33.234" fill="#0C2121"/>
<path d="M26.8214 52.2758C26.8052 52.2758 26.7891 52.2716 26.7734 52.2629L17.8329 47.1019C17.7877 47.0756 17.7725 47.0175 17.7988 46.9723C17.8251 46.927 17.8828 46.9123 17.9275 46.9381L26.868 52.099C26.9132 52.1253 26.9294 52.183 26.9022 52.2292C26.8855 52.2587 26.8542 52.2758 26.8214 52.2758Z" fill="#BCF7F7"/>
<path d="M26.8214 51.2147C26.8052 51.2147 26.7891 51.2105 26.7734 51.2022L17.8334 46.0413C17.7882 46.015 17.7729 45.9568 17.7992 45.9116C17.8255 45.8668 17.8832 45.8511 17.928 45.877L26.8685 51.0379C26.9137 51.0651 26.9299 51.1228 26.9026 51.1676C26.8855 51.198 26.8542 51.2147 26.8214 51.2147Z" fill="#BCF7F7"/>
<path d="M26.8214 50.154C26.8052 50.154 26.7891 50.1494 26.7734 50.1415L17.8334 44.9806C17.7882 44.9543 17.7729 44.8957 17.7992 44.8509C17.8255 44.8062 17.8832 44.7905 17.928 44.8159L26.8685 49.9772C26.9137 50.004 26.9299 50.0622 26.9026 50.1065C26.8855 50.1369 26.8542 50.154 26.8214 50.154Z" fill="#BCF7F7"/>
<path d="M26.8214 49.0934C26.8052 49.0934 26.7891 49.0893 26.7734 49.081L17.8334 43.9196C17.7882 43.8933 17.7729 43.8351 17.7992 43.7908C17.8255 43.7447 17.8832 43.7303 17.928 43.7557L26.8685 48.9167C26.9137 48.943 26.9299 49.0016 26.9026 49.0463C26.8855 49.0763 26.8542 49.0934 26.8214 49.0934Z" fill="#BCF7F7"/>
<path d="M26.8214 48.0328C26.8052 48.0328 26.7891 48.0286 26.7734 48.0203L17.8334 42.8589C17.7882 42.8326 17.7729 42.7745 17.7992 42.7297C17.8255 42.6849 17.8832 42.6692 17.928 42.6951L26.8685 47.8565C26.9137 47.8832 26.9299 47.9409 26.9026 47.9862C26.8855 48.0157 26.8542 48.0328 26.8214 48.0328Z" fill="#BCF7F7"/>
<path d="M26.8214 46.9717C26.8052 46.9717 26.7891 46.968 26.7734 46.9597L17.8334 41.7983C17.7882 41.772 17.7729 41.7139 17.7992 41.6686C17.8255 41.6239 17.8832 41.6082 17.928 41.6345L26.8685 46.7954C26.9137 46.8222 26.9299 46.8803 26.9026 46.9251C26.8855 46.9546 26.8542 46.9717 26.8214 46.9717Z" fill="#BCF7F7"/>
<path d="M26.8214 45.9116C26.8052 45.9116 26.7891 45.9074 26.7734 45.8996L17.8334 40.7387C17.7882 40.7119 17.7729 40.6538 17.7992 40.609C17.8255 40.5642 17.8832 40.5485 17.928 40.5739L26.8685 45.7348C26.9137 45.7616 26.9299 45.8198 26.9026 45.8645C26.8855 45.8945 26.8542 45.9116 26.8214 45.9116Z" fill="#BCF7F7"/>
<path d="M26.8214 44.851C26.8052 44.851 26.7891 44.8473 26.7734 44.8385L17.8334 39.6776C17.7882 39.6508 17.7729 39.5927 17.7992 39.5484C17.8255 39.5027 17.8832 39.4879 17.928 39.5138L26.8685 44.6747C26.9137 44.701 26.9299 44.7591 26.9026 44.8044C26.8855 44.8339 26.8542 44.851 26.8214 44.851Z" fill="#BCF7F7"/>
<path d="M31.3034 25.0446L13.8199 35.1398L31.3034 45.2332L48.7869 35.1398L31.3034 25.0446Z" fill="#E26B0A"/>
<path d="M13.8199 35.1398L31.3034 45.2332L48.7869 35.1398" fill="#CC5B06"/>
<path d="M13.8199 35.1398V35.7688L31.3034 45.8645V45.2332L13.8199 35.1398Z" fill="#FF7F00"/>
<path d="M48.7869 35.1398V35.7688L31.3034 45.8645V45.2332L48.7869 35.1398Z" fill="#FFA300"/>
<path d="M35.3769 27.739L18.4625 37.5079L26.6349 42.2267L43.5471 32.455L35.3769 27.739Z" fill="#9B4302"/>
<path d="M26.6349 42.2267L43.5471 32.455L35.3769 27.739" fill="#843804"/>
<path d="M35.4337 37.1429L43.5471 32.455L35.4337 27.7709V37.1429Z" fill="#843804"/>
<path d="M35.4337 29.6581V37.1428L41.9132 33.3993L35.4337 29.6581Z" fill="#66320E"/>
<path d="M25.4718 41.5547L26.6349 42.2267L36.5382 36.505L35.3769 35.8348L25.4718 41.5547Z" fill="#440808"/>
<path d="M32.508 41.2579L31.3025 41.9586V45.2239L32.508 44.5141V41.2579Z" fill="#A7D1D3"/>
<path d="M32.508 41.2579L31.3025 41.9586V45.2239" fill="#91BBBF"/>
<path d="M30.1002 41.2579L31.3025 41.9586V45.2239L30.1002 44.5141V41.2579Z" fill="#6B878E"/>
<path d="M30.1002 41.2579L31.3025 41.9586V45.2239" fill="#527075"/>
<path d="M31.3025 40.5536L30.1002 41.2579L31.3025 41.9585L32.508 41.2579L31.3025 40.5536Z" fill="#719499"/>
<path d="M30.1002 41.2579L31.3025 41.9586L32.508 41.2579" fill="#5C7E7F"/>
<path d="M31.2946 41.7692L32.1895 41.2472L31.2946 40.7257L30.3923 41.2472L31.2946 41.7692Z" fill="#527075"/>
<path d="M31.2946 40.7257L30.3923 41.2472L31.2946 41.7692" fill="#425D60"/>
<path d="M31.6703 30.6785L31.2946 30.9074V41.436L31.6703 41.2182V30.6785Z" fill="#8CADB5"/>
<path d="M30.9185 30.6785L31.2946 30.9074V41.436L30.9185 41.2182V30.6785Z" fill="#7C949B"/>
<path d="M31.6703 30.6785V31.3994L31.2946 31.6071V31.1899V30.9074L31.6703 30.6785Z" fill="#7C949B"/>
<path d="M31.2946 31.1899V31.6071L30.9185 31.3994V30.6785L31.2946 30.9074V31.1899Z" fill="#547277"/>
<path d="M32.4295 29.8607V29.4264L31.3025 30.0799" fill="#444738"/>
<path d="M32.4295 29.4264V29.8607V30.2909L31.3025 30.9379V30.5267V30.0799L32.4295 29.4264Z" fill="#8CADB5"/>
<path d="M31.3025 30.9379V30.5267V30.0799L32.4295 29.4264" fill="#779AA0"/>
<path d="M31.3025 30.0799V30.5267V30.9379L30.1865 30.2909V29.8607V29.4264L31.3025 30.0799Z" fill="#7C949B"/>
<path d="M30.1865 29.8607V29.4264L31.3025 30.0799V30.5267V30.9379" fill="#6B878E"/>
<path d="M32.4295 29.4263L31.3025 30.0799L30.8617 29.8122L30.1865 29.4263L31.3025 28.7788L32.4295 29.4263Z" fill="#9EC6CC"/>
<path d="M16.2286 31.8674L15.0235 32.569V35.8348L16.2286 35.124V31.8674Z" fill="#A7D1D3"/>
<path d="M16.2286 31.8674L15.0235 32.569V35.8348" fill="#91BBBF"/>
<path d="M13.8199 31.8674L15.0235 32.569V35.8348L13.8199 35.124V31.8674Z" fill="#6B878E"/>
<path d="M13.8199 31.8674L15.0235 32.569V35.8348" fill="#527075"/>
<path d="M15.0235 31.1641L13.8199 31.8674L15.0235 32.569L16.2286 31.8674L15.0235 31.1641Z" fill="#719499"/>
<path d="M13.8199 31.8674L15.0235 32.569L16.2286 31.8674" fill="#5C7E7F"/>
<path d="M15.0152 32.3794L15.9097 31.8574L15.0152 31.3358L14.112 31.8574L15.0152 32.3794Z" fill="#527075"/>
<path d="M15.0152 31.3358L14.112 31.8574L15.0152 32.3794" fill="#425D60"/>
<path d="M15.3914 21.2881L15.0152 21.5175V32.0465L15.3914 31.8278V21.2881Z" fill="#8CADB5"/>
<path d="M14.6395 21.2881L15.0152 21.5175V32.0465L14.6395 31.8278V21.2881Z" fill="#7C949B"/>
<path d="M15.3914 21.2881V22.0095L15.0152 22.2172V21.7999V21.5175L15.3914 21.2881Z" fill="#7C949B"/>
<path d="M15.0152 21.7999V22.2172L14.6395 22.0095V21.2881L15.0152 21.5175V21.7999Z" fill="#547277"/>
<path d="M16.1492 20.4707V20.0364L15.0235 20.6885" fill="#444738"/>
<path d="M16.1492 20.0364V20.4707V20.9008L15.0235 21.5479V21.1367V20.6885L16.1492 20.0364Z" fill="#8CADB5"/>
<path d="M15.0235 21.5479V21.1367V20.6885L16.1492 20.0364" fill="#779AA0"/>
<path d="M15.0235 20.6885V21.1367V21.5479L13.9066 20.9008V20.4707V20.0364L15.0235 20.6885Z" fill="#7C949B"/>
<path d="M13.9066 20.4707V20.0364L15.0235 20.6885V21.1367V21.5479" fill="#6B878E"/>
<path d="M16.1492 20.0364L15.0235 20.6885L14.5818 20.4227L13.9066 20.0364L15.0235 19.3898L16.1492 20.0364Z" fill="#9EC6CC"/>
<path d="M48.7869 31.8689L47.5818 32.5695V35.8349L48.7869 35.125V31.8689Z" fill="#A7D1D3"/>
<path d="M48.7869 31.8689L47.5818 32.5695V35.8349" fill="#91BBBF"/>
<path d="M46.3782 31.8689L47.5819 32.5695V35.8349L46.3782 35.125V31.8689Z" fill="#6B878E"/>
<path d="M46.3782 31.8689L47.5819 32.5695V35.8349" fill="#527075"/>
<path d="M47.5819 31.165L46.3782 31.8689L47.5819 32.5695L48.7869 31.8689L47.5819 31.165Z" fill="#719499"/>
<path d="M46.3782 31.8689L47.5819 32.5695L48.7869 31.8689" fill="#5C7E7F"/>
<path d="M47.5735 32.3799L48.468 31.8583L47.5735 31.3368L46.6703 31.8583L47.5735 32.3799Z" fill="#527075"/>
<path d="M47.5735 31.3368L46.6703 31.8583L47.5735 32.3799" fill="#425D60"/>
<path d="M47.9497 21.2891L47.5735 21.518V32.0471L47.9497 31.8288V21.2891Z" fill="#8CADB5"/>
<path d="M47.1979 21.2891L47.5736 21.518V32.0471L47.1979 31.8288V21.2891Z" fill="#7C949B"/>
<path d="M47.9497 21.2891V22.01L47.5735 22.2181V21.8009V21.518L47.9497 21.2891Z" fill="#7C949B"/>
<path d="M47.5736 21.8009V22.2181L47.1979 22.01V21.2891L47.5736 21.518V21.8009Z" fill="#547277"/>
<path d="M48.7076 20.4712V20.0369L47.5819 20.6909" fill="#444738"/>
<path d="M48.7076 20.0369V20.4712V20.9027L47.5819 21.5484V21.1372V20.6909L48.7076 20.0369Z" fill="#8CADB5"/>
<path d="M47.5819 21.5484V21.1372V20.6909L48.7076 20.0369" fill="#779AA0"/>
<path d="M47.5819 20.6909V21.1372V21.5484L46.4649 20.9027V20.4712V20.0369L47.5819 20.6909Z" fill="#7C949B"/>
<path d="M46.4649 20.4712V20.0369L47.5819 20.6909V21.1372V21.5484" fill="#6B878E"/>
<path d="M48.7075 20.0369L47.5819 20.6909L47.1402 20.4227L46.4649 20.0369L47.5819 19.3907L48.7075 20.0369Z" fill="#9EC6CC"/>
<path d="M46.2956 10.2872C26.8182 -0.957241 35.0331 -0.541856 16.29 10.2872C8.03447 15.0535 8.03447 22.8466 16.29 27.6129C24.5382 32.3788 38.0409 32.3788 46.2956 27.6129C54.5437 22.8466 54.5437 15.0535 46.2956 10.2872Z" fill="#FF7F00"/>
<path d="M46.2955 27.6129C54.5437 22.8466 54.5437 15.0535 46.2955 10.2872C26.8182 -0.957241 35.0331 -0.541856 16.29 10.2872" fill="#E26B0A"/>
<path d="M42.9711 8.04836C27.8086 -0.705642 34.2037 -0.383026 19.6131 8.04836C13.1866 11.7587 13.1866 17.8256 19.6131 21.5354C26.034 25.2457 36.5451 25.2457 42.9711 21.5354C49.3929 17.8256 49.3929 11.7591 42.9711 8.04836Z" fill="#FFA300"/>
<path d="M42.9711 21.5354C49.3929 17.8256 49.3929 11.7587 42.9711 8.04836C27.8086 -0.705641 34.2037 -0.383026 19.6131 8.04836" fill="#EF980C"/>
<path d="M22.9643 15.2682C27.5419 17.9137 35.0372 17.9137 39.6194 15.2682C44.1979 12.6236 44.1979 8.2971 39.6194 5.65248C28.8083 -0.589823 33.3679 -0.359054 22.9643 5.65248C18.3822 8.29756 18.3822 12.6236 22.9643 15.2682Z" fill="#FFB600"/>
<path d="M39.6194 15.2682C44.1979 12.6236 44.1979 8.2971 39.6194 5.65248C28.8083 -0.589823 33.3679 -0.359054 22.9643 5.65248" fill="#F4AA06"/>
<path d="M36.87 3.54004C29.628 -0.641495 32.682 -0.487341 25.7128 3.54004C22.6426 5.31189 22.6426 8.21035 25.7128 9.98312C28.7797 11.755 33.7994 11.755 36.87 9.98312C39.9374 8.21035 39.9374 5.31189 36.87 3.54004Z" fill="#FFC200"/>
<path d="M36.87 9.98312C39.9374 8.21035 39.9374 5.31189 36.87 3.54004C29.628 -0.641495 32.682 -0.487341 25.7128 3.54004" fill="#EFAF0F"/>
<path d="M48.8132 42.5613L48.3272 42.2806L47.8412 42.5613L48.3272 42.8409L48.8132 42.5613Z" fill="#5B2907"/>
<path d="M48.3208 45.4021L50.5177 46.6667V46.9321L48.3235 45.6532L48.3208 45.4021Z" fill="#5B2907"/>
<path d="M48.3208 45.402L48.5428 45.2737L50.7369 46.5401L50.5177 46.6666L48.3208 45.402Z" fill="#6D360C"/>
<path d="M51.3942 50.665L50.0552 41.274L49.5669 41.5565L50.4826 50.1379L51.3942 50.665Z" fill="#6D360C"/>
<path d="M50.7369 47.0585L48.5409 48.3245V48.5889L50.7342 47.3109L50.7369 47.0585Z" fill="#B75513"/>
<path d="M50.7369 47.0584L50.5149 46.9315L48.3208 48.1971L48.5409 48.3244L50.7369 47.0584Z" fill="#5B2907"/>
<path d="M48.3208 45.4297L46.1252 46.6943V46.9597L48.3189 45.6812L48.3208 45.4297Z" fill="#B75513"/>
<path d="M48.3208 45.4297L48.0992 45.3014L45.906 46.5679L46.1252 46.6943L48.3208 45.4297Z" fill="#5B2907"/>
<path d="M48.3272 52.4368V42.2806L48.8169 42.5631L49.2397 51.9111L48.3272 52.4368Z" fill="#A34F11"/>
<path d="M51.3942 50.665L50.0552 41.274L49.5669 41.5565" fill="#5B2907"/>
<path d="M51.3942 50.665L50.0552 41.274L50.5449 41.5565L52.3071 50.1379L51.3942 50.665Z" fill="#A34F11"/>
<path d="M50.5412 41.5533L50.0552 41.274L49.5692 41.5533L50.0552 41.8348L50.5412 41.5533Z" fill="#5B2907"/>
<path d="M45.2603 50.665L46.5992 41.274L46.1105 41.5565L44.3483 50.1379L45.2603 50.665Z" fill="#6D360C"/>
<path d="M45.2603 50.665L46.5992 41.274L46.1105 41.5565" fill="#5B2907"/>
<path d="M45.2603 50.665L46.5992 41.274L47.0885 41.5565L46.1728 50.1379L45.2603 50.665Z" fill="#A34F11"/>
<path d="M45.906 47.0585L48.102 48.3245V48.5889L45.9088 47.3109L45.906 47.0585Z" fill="#5B2907"/>
<path d="M45.906 47.0584L46.1275 46.9315L48.3208 48.1971L48.102 48.3244L45.906 47.0584Z" fill="#6D360C"/>
<path d="M48.3272 52.4368V42.2806L47.8385 42.5631L47.4148 51.9111L48.3272 52.4368Z" fill="#6D360C"/>
<path d="M48.3272 52.4368V42.2806L47.8385 42.5631" fill="#5B2907"/>
<path d="M47.0862 41.5533L46.5992 41.274L46.1132 41.5533L46.5992 41.8348L47.0862 41.5533Z" fill="#5B2907"/>
<path d="M48.3235 42.6992V43.8429L45.3632 42.1287V40.9883L48.3235 42.6992Z" fill="#BA7625"/>
<path d="M48.3272 42.6992V43.8429L51.2875 42.1287V40.9883L48.3272 42.6992Z" fill="#A3540D"/>
<path d="M48.3272 42.6992V43.2711L51.2875 42.1287V40.9883L48.3272 42.6992Z" fill="#91480C"/>
<path d="M45.3632 40.4155V41.5569L48.3235 43.2711V42.1274L45.3632 40.4155Z" fill="#A34D0D"/>
<path d="M48.3235 43.2711V42.1274L45.3632 40.4155" fill="#934607"/>
<path d="M48.3272 42.1274V43.2711L51.2875 41.5569V40.4155L48.3272 42.1274Z" fill="#703207"/>
<path d="M51.2875 40.4155L48.3272 42.1274V43.2711" fill="#5E2905"/>
<path d="M45.3632 40.4155L48.3235 42.1274L49.5125 41.4424L51.2912 40.4155L48.3272 38.7046L45.3632 40.4155Z" fill="#D38129"/>
<path d="M45.3632 40.4155L48.3235 42.1274L49.5125 41.4424L51.2912 40.4155" fill="#B76A1D"/>
<path d="M50.7881 40.3329V39.7809H50.1429L48.8086 39.0115C48.5183 38.843 48.0425 38.843 47.7521 39.0115L46.4178 39.7809H45.7735V40.3296C45.7717 40.4413 45.8446 40.553 45.9909 40.6379L47.7521 41.6542C48.0425 41.8227 48.5183 41.8227 48.8086 41.6542L50.5698 40.6379C50.6977 40.5636 50.7665 40.469 50.7817 40.3721H50.7881V40.3329Z" fill="#474746"/>
<path d="M47.7521 39.011L46.4178 39.7804H45.7735V40.3292C45.7717 40.4409 45.8446 40.5526 45.9909 40.6375L47.7521 41.6538C48.0425 41.8223 48.5183 41.8223 48.8086 41.6538V39.0106C48.5183 38.8426 48.0425 38.8426 47.7521 39.011Z" fill="#1E1E1D"/>
<path d="M50.5698 39.4934L48.8086 38.4766C48.5183 38.3091 48.0425 38.3091 47.7522 38.4766L45.9909 39.4934C45.7006 39.6609 45.7006 39.936 45.9909 40.1035L47.7522 41.1203C48.0425 41.2878 48.5183 41.2878 48.8086 41.1203L50.5698 40.1035C50.8611 39.936 50.8611 39.6614 50.5698 39.4934Z" fill="#5B5B59"/>
<path d="M48.8086 38.4766C48.5183 38.3091 48.0425 38.3091 47.7522 38.4766L45.9909 39.4934C45.7006 39.6609 45.7006 39.936 45.9909 40.1035L47.7522 41.1203C48.0425 41.2878 48.5183 41.2878 48.8086 41.1203" fill="#474746"/>
<path d="M47.0275 39.9166C47.0728 39.9424 47.1268 39.9539 47.1475 39.9424C47.1683 39.9299 47.2108 39.9055 47.2421 39.8879C47.2726 39.8704 47.2611 39.8335 47.2149 39.8072C47.1697 39.7809 47.0903 39.7846 47.0391 39.8146C46.9869 39.8446 46.9814 39.8903 47.0275 39.9166Z" fill="#3A3A3A"/>
<path d="M47.4078 39.6973C47.454 39.7236 47.5071 39.7361 47.5288 39.7236C47.5486 39.7116 47.5911 39.6872 47.6225 39.6696C47.6529 39.6512 47.6414 39.6156 47.5961 39.5884C47.5509 39.563 47.4711 39.5662 47.4194 39.5958C47.3681 39.6253 47.3626 39.6715 47.4078 39.6973Z" fill="#3A3A3A"/>
<path d="M47.7882 39.4795C47.8343 39.5049 47.8883 39.5165 47.9091 39.5049C47.9298 39.4929 47.9723 39.4684 48.0028 39.4504C48.0342 39.4324 48.0226 39.3965 47.9774 39.3701C47.9312 39.3443 47.8523 39.3475 47.8006 39.3771C47.7485 39.4066 47.7429 39.4518 47.7882 39.4795Z" fill="#3A3A3A"/>
<path d="M48.1694 39.2598C48.2146 39.2866 48.2686 39.2977 48.2894 39.2866C48.3101 39.2741 48.3535 39.2497 48.384 39.2312C48.4144 39.2137 48.4029 39.1781 48.3577 39.1513C48.3124 39.1246 48.2326 39.1278 48.1809 39.1583C48.1297 39.1873 48.1246 39.234 48.1694 39.2598Z" fill="#3A3A3A"/>
<path d="M48.5506 39.041C48.5958 39.0678 48.6498 39.0789 48.6706 39.0673C48.6914 39.0553 48.7338 39.0309 48.7643 39.0129C48.7957 38.9953 48.7841 38.9584 48.738 38.933C48.6928 38.9067 48.6134 38.9095 48.5622 38.9399C48.51 38.969 48.5049 39.0147 48.5506 39.041Z" fill="#3A3A3A"/>
<path d="M47.5098 40.2018C47.5551 40.229 47.61 40.2405 47.6308 40.229C47.6515 40.2165 47.694 40.1916 47.7244 40.1741C47.7549 40.1565 47.7443 40.1201 47.6981 40.0942C47.6529 40.0675 47.5735 40.0702 47.5223 40.1002C47.4701 40.1307 47.4646 40.1768 47.5098 40.2018Z" fill="#3A3A3A"/>
<path d="M47.8911 39.9839C47.9363 40.0102 47.9903 40.0213 48.0111 40.0102C48.0318 39.9982 48.0752 39.9733 48.1057 39.9553C48.1361 39.9373 48.1246 39.9018 48.0794 39.8755C48.0332 39.8487 47.9543 39.8515 47.9026 39.8828C47.8505 39.9119 47.8449 39.9576 47.8911 39.9839Z" fill="#3A3A3A"/>
<path d="M48.2714 39.7647C48.3175 39.791 48.3706 39.8025 48.3923 39.7901C48.4131 39.7785 48.4555 39.7545 48.486 39.7365C48.5174 39.719 48.5049 39.683 48.4597 39.6557C48.4145 39.6299 48.3351 39.6331 48.2829 39.6631C48.2317 39.6936 48.2261 39.7388 48.2714 39.7647Z" fill="#3A3A3A"/>
<path d="M48.6526 39.5469C48.6978 39.5732 48.7518 39.5843 48.7726 39.5723C48.7934 39.5607 48.8358 39.5358 48.8663 39.5183C48.8977 39.5003 48.8862 39.4643 48.8409 39.4375C48.7948 39.4116 48.7158 39.4153 48.6642 39.4444C48.612 39.4735 48.6074 39.5196 48.6526 39.5469Z" fill="#3A3A3A"/>
<path d="M49.0329 39.3277C49.0782 39.354 49.1322 39.3655 49.1538 39.3531C49.1737 39.3415 49.2162 39.3175 49.2475 39.2995C49.278 39.2811 49.2665 39.2455 49.2212 39.2188C49.176 39.1925 49.0962 39.1961 49.0445 39.2252C48.9923 39.2557 48.9882 39.3014 49.0329 39.3277Z" fill="#3A3A3A"/>
<path d="M47.9926 40.4888C48.0378 40.5161 48.0918 40.5267 48.1126 40.5151C48.1334 40.5027 48.1768 40.4787 48.2072 40.4602C48.2386 40.4431 48.2261 40.4067 48.1809 40.3804C48.1348 40.3541 48.0558 40.3573 48.0042 40.3873C47.952 40.4164 47.9469 40.4625 47.9926 40.4888Z" fill="#3A3A3A"/>
<path d="M48.3734 40.2701C48.4195 40.2959 48.4735 40.3079 48.4943 40.2959C48.5151 40.2844 48.5575 40.2599 48.588 40.2419C48.6194 40.2239 48.6078 40.1875 48.5626 40.1616C48.5165 40.1353 48.4375 40.1381 48.3858 40.169C48.3337 40.1976 48.3281 40.2433 48.3734 40.2701Z" fill="#3A3A3A"/>
<path d="M48.7546 40.0513C48.7998 40.0771 48.8538 40.0891 48.8746 40.0771C48.8954 40.0651 48.9378 40.0398 48.9692 40.0227C48.9997 40.0047 48.9881 39.9687 48.9429 39.9424C48.8968 39.9165 48.8178 39.9197 48.7661 39.9497C48.714 39.9793 48.7094 40.0254 48.7546 40.0513Z" fill="#3A3A3A"/>
<path d="M49.1349 39.8331C49.1811 39.8589 49.2351 39.8705 49.2558 39.8585C49.2766 39.8474 49.3191 39.822 49.3495 39.804C49.3809 39.7874 49.3685 39.7505 49.3232 39.7237C49.278 39.6974 49.1986 39.7011 49.1465 39.7311C49.0952 39.7601 49.0897 39.8068 49.1349 39.8331Z" fill="#3A3A3A"/>
<path d="M49.5161 39.6138C49.5614 39.6396 49.6154 39.6507 49.6361 39.6396C49.6569 39.6271 49.6994 39.6027 49.7308 39.5847C49.7612 39.5676 49.7497 39.5311 49.7044 39.5048C49.6592 39.4794 49.5794 39.4808 49.5277 39.5118C49.4755 39.5413 49.4705 39.5879 49.5161 39.6138Z" fill="#3A3A3A"/>
<path d="M42.6817 46.1119L42.1948 45.8318L41.7088 46.1119L42.1948 46.3921L42.6817 46.1119Z" fill="#5B2907"/>
<path d="M42.1883 48.9523L44.3852 50.2178V50.4827L42.1911 49.2038L42.1883 48.9523Z" fill="#5B2907"/>
<path d="M42.1883 48.9522L42.4112 48.8248L44.6045 50.0908L44.3852 50.2178L42.1883 48.9522Z" fill="#6D360C"/>
<path d="M45.2622 54.2161L43.9228 44.8252L43.434 45.1067L44.3502 53.6886L45.2622 54.2161Z" fill="#6D360C"/>
<path d="M44.6045 50.6091L42.4085 51.8751V52.1401L44.6026 50.8616L44.6045 50.6091Z" fill="#B75513"/>
<path d="M44.6045 50.6092L44.3825 50.4818L42.1883 51.7483L42.4085 51.8752L44.6045 50.6092Z" fill="#5B2907"/>
<path d="M42.1883 48.9803L39.9923 50.245V50.5099L42.1865 49.2319L42.1883 48.9803Z" fill="#B75513"/>
<path d="M42.1883 48.9804L41.9677 48.8525L39.7735 50.119L39.9923 50.245L42.1883 48.9804Z" fill="#5B2907"/>
<path d="M42.1948 55.9879V45.8318L42.684 46.1138L43.1077 55.4618L42.1948 55.9879Z" fill="#A34F11"/>
<path d="M45.2622 54.2161L43.9228 44.8252L43.434 45.1067" fill="#5B2907"/>
<path d="M45.2622 54.2161L43.9228 44.8252L44.4125 45.1067L46.1746 53.6886L45.2622 54.2161Z" fill="#A34F11"/>
<path d="M44.4088 45.1044L43.9228 44.8252L43.4368 45.1044L43.9228 45.3855L44.4088 45.1044Z" fill="#5B2907"/>
<path d="M39.1278 54.2161L40.4668 44.8252L39.978 45.1067L38.2159 53.6886L39.1278 54.2161Z" fill="#6D360C"/>
<path d="M39.1279 54.2161L40.4668 44.8252L39.978 45.1067" fill="#5B2907"/>
<path d="M39.1279 54.2161L40.4668 44.8252L40.956 45.1067L40.0403 53.6886L39.1279 54.2161Z" fill="#A34F11"/>
<path d="M39.7735 50.6091L41.9695 51.8751V52.1401L39.7763 50.8616L39.7735 50.6091Z" fill="#5B2907"/>
<path d="M39.7735 50.6092L39.9951 50.4818L42.1883 51.7483L41.9695 51.8752L39.7735 50.6092Z" fill="#6D360C"/>
<path d="M42.1948 55.9879V45.8318L41.706 46.1138L41.2823 55.4618L42.1948 55.9879Z" fill="#6D360C"/>
<path d="M42.1948 55.9879V45.8318L41.706 46.1138" fill="#5B2907"/>
<path d="M40.9532 45.1044L40.4668 44.8252L39.9808 45.1044L40.4668 45.3855L40.9532 45.1044Z" fill="#5B2907"/>
<path d="M42.1911 46.2499V47.394L39.2308 45.6799V44.5389L42.1911 46.2499Z" fill="#BA7625"/>
<path d="M42.1948 46.2499V47.394L45.1551 45.6799V44.5389L42.1948 46.2499Z" fill="#A3540D"/>
<path d="M42.1948 46.2499V46.8217L45.1551 45.6799V44.5389L42.1948 46.2499Z" fill="#91480C"/>
<path d="M39.2308 43.9667V45.1076L42.1911 46.8218V45.6785L39.2308 43.9667Z" fill="#A34D0D"/>
<path d="M42.1911 46.8218V45.6785L39.2308 43.9667" fill="#934607"/>
<path d="M42.1948 45.6785V46.8218L45.1551 45.1076V43.9667L42.1948 45.6785Z" fill="#703207"/>
<path d="M45.1551 43.9667L42.1948 45.6785V46.8218" fill="#5E2905"/>
<path d="M39.2308 43.9667L42.1911 45.6785L43.38 44.9931L45.1588 43.9667L42.1948 42.2557L39.2308 43.9667Z" fill="#D38129"/>
<path d="M39.2308 43.9667L42.1911 45.6785L43.38 44.9931L45.1588 43.9667" fill="#B76A1D"/>
<path d="M44.6557 43.8836V43.3316H44.0114L42.6761 42.5623C42.3858 42.3938 41.91 42.3938 41.6197 42.5623L40.2854 43.3316H39.6411V43.8804C39.6392 43.9916 39.7121 44.1033 39.8585 44.1887L41.6197 45.205C41.91 45.3735 42.3858 45.3735 42.6761 45.205L44.4374 44.1887C44.5661 44.1144 44.634 44.0198 44.6492 43.9229H44.6557V43.8836Z" fill="#474746"/>
<path d="M41.6197 42.5622L40.2854 43.3316H39.6411V43.8803C39.6392 43.9916 39.7121 44.1033 39.8585 44.1887L41.6197 45.205C41.91 45.3734 42.3858 45.3734 42.6761 45.205V42.5617C42.3858 42.3937 41.91 42.3937 41.6197 42.5622Z" fill="#1E1E1D"/>
<path d="M44.4374 43.0445L42.6762 42.0278C42.3858 41.8602 41.91 41.8602 41.6197 42.0278L39.8585 43.0445C39.5682 43.2121 39.5682 43.4871 39.8585 43.6547L41.6197 44.6719C41.91 44.839 42.3858 44.839 42.6762 44.6719L44.4374 43.6547C44.7286 43.4871 44.7286 43.2121 44.4374 43.0445Z" fill="#5B5B59"/>
<path d="M42.6762 42.0278C42.3858 41.8602 41.91 41.8602 41.6197 42.0278L39.8585 43.0445C39.5682 43.2121 39.5682 43.4871 39.8585 43.6547L41.6197 44.6719C41.91 44.839 42.3858 44.839 42.6762 44.6719" fill="#474746"/>
<path d="M40.8946 43.4678C40.9398 43.4937 40.9938 43.5052 41.0146 43.4932C41.0354 43.4812 41.0778 43.4568 41.1092 43.4392C41.1397 43.4221 41.1282 43.3848 41.082 43.3584C41.0368 43.3321 40.9574 43.3358 40.9061 43.3658C40.8549 43.3958 40.8489 43.4411 40.8946 43.4678Z" fill="#3A3A3A"/>
<path d="M41.2754 43.2486C41.3215 43.2744 41.3746 43.2873 41.3963 43.2744C41.4171 43.2624 41.4595 43.2375 41.49 43.2204C41.5205 43.2019 41.5089 43.1664 41.4637 43.1392C41.4185 43.1138 41.3391 43.117 41.2869 43.1466C41.2357 43.1766 41.2301 43.2218 41.2754 43.2486Z" fill="#3A3A3A"/>
<path d="M41.6557 43.0298C41.7018 43.0557 41.7558 43.0668 41.7766 43.0557C41.7974 43.0437 41.8398 43.0192 41.8712 43.0012C41.9017 42.9832 41.8902 42.9472 41.8449 42.9214C41.7988 42.8946 41.7198 42.8983 41.6682 42.9278C41.616 42.9574 41.6105 43.0031 41.6557 43.0298Z" fill="#3A3A3A"/>
<path d="M42.0369 42.811C42.0821 42.8373 42.1361 42.8488 42.1569 42.8368C42.1777 42.8253 42.2211 42.8004 42.2515 42.7824C42.282 42.7648 42.2704 42.7298 42.2252 42.7021C42.18 42.6758 42.1006 42.679 42.0485 42.7099C41.9972 42.7385 41.9917 42.7847 42.0369 42.811Z" fill="#3A3A3A"/>
<path d="M42.4181 42.5918C42.4634 42.6186 42.5174 42.6296 42.5382 42.6181C42.5589 42.6061 42.6014 42.5812 42.6318 42.5636C42.6632 42.5461 42.6517 42.5092 42.6055 42.4838C42.5603 42.4575 42.4809 42.4603 42.4297 42.4907C42.3775 42.5198 42.3725 42.566 42.4181 42.5918Z" fill="#3A3A3A"/>
<path d="M41.3778 43.7531C41.4231 43.7803 41.4771 43.7918 41.4978 43.7803C41.5186 43.7683 41.5611 43.7429 41.5924 43.7254C41.622 43.7078 41.6114 43.6718 41.5652 43.6451C41.52 43.6187 41.4406 43.6215 41.3894 43.652C41.3372 43.6815 41.3321 43.7277 41.3778 43.7531Z" fill="#3A3A3A"/>
<path d="M41.7586 43.5347C41.8038 43.561 41.8578 43.5716 41.8786 43.561C41.8994 43.5486 41.9428 43.5241 41.9732 43.5061C42.0037 43.4881 41.9922 43.4521 41.9469 43.4258C41.9017 43.3995 41.8218 43.4027 41.7702 43.4327C41.7189 43.4627 41.7125 43.5089 41.7586 43.5347Z" fill="#3A3A3A"/>
<path d="M42.1389 43.316C42.1851 43.3423 42.2381 43.3538 42.2598 43.3414C42.2806 43.3298 42.3231 43.3058 42.3535 43.2878C42.3849 43.2703 42.3734 43.2343 42.3281 43.207C42.282 43.1812 42.2031 43.184 42.1505 43.2144C42.0992 43.244 42.0937 43.2897 42.1389 43.316Z" fill="#3A3A3A"/>
<path d="M42.5202 43.0977C42.5654 43.124 42.6194 43.1346 42.6402 43.1231C42.6609 43.1115 42.7034 43.0866 42.7348 43.0691C42.7652 43.0511 42.7537 43.0151 42.7085 42.9883C42.6623 42.9625 42.5834 42.9657 42.5317 42.9952C42.4795 43.0248 42.4749 43.0705 42.5202 43.0977Z" fill="#3A3A3A"/>
<path d="M42.9005 42.8784C42.9457 42.9047 43.0006 42.9162 43.0214 42.9038C43.0422 42.8922 43.0846 42.8682 43.1151 42.8502C43.1455 42.8318 43.134 42.7958 43.0888 42.7695C43.0435 42.7431 42.9642 42.7464 42.912 42.7759C42.8598 42.8064 42.8557 42.8525 42.9005 42.8784Z" fill="#3A3A3A"/>
<path d="M41.8601 44.0396C41.9054 44.0668 41.9594 44.0775 41.9811 44.0659C42.0018 44.0535 42.0443 44.0295 42.0748 44.011C42.1061 43.9939 42.0946 43.9575 42.0485 43.9312C42.0023 43.9048 41.9238 43.9081 41.8717 43.9381C41.8195 43.9681 41.8154 44.0133 41.8601 44.0396Z" fill="#3A3A3A"/>
<path d="M42.2405 43.8204C42.2866 43.8467 42.3406 43.8587 42.3614 43.8467C42.3822 43.8352 42.4246 43.8102 42.4551 43.7927C42.4865 43.7747 42.4749 43.7382 42.4297 43.7124C42.3835 43.6861 42.3046 43.6889 42.2529 43.7198C42.2012 43.7489 42.1957 43.7946 42.2405 43.8204Z" fill="#3A3A3A"/>
<path d="M42.6222 43.6026C42.6674 43.6279 42.7214 43.6404 42.7422 43.6279C42.7629 43.6164 42.8063 43.591 42.8368 43.5739C42.8672 43.5564 42.8557 43.5199 42.8105 43.4936C42.7652 43.4678 42.6858 43.471 42.6337 43.501C42.5815 43.531 42.5769 43.5763 42.6222 43.6026Z" fill="#3A3A3A"/>
<path d="M43.0025 43.3833C43.0486 43.4096 43.1026 43.4216 43.1234 43.4087C43.1442 43.3981 43.1866 43.3727 43.2171 43.3547C43.2485 43.3376 43.236 43.3012 43.1908 43.2744C43.1455 43.2486 43.0662 43.2518 43.014 43.2818C42.9628 43.3113 42.9572 43.357 43.0025 43.3833Z" fill="#3A3A3A"/>
<path d="M43.3837 43.1641C43.4289 43.1909 43.4829 43.2015 43.5037 43.1909C43.5245 43.178 43.5669 43.1535 43.5983 43.1355C43.6288 43.1184 43.6172 43.082 43.572 43.0557C43.5268 43.0298 43.4469 43.0317 43.3952 43.0626C43.3431 43.0921 43.3375 43.1392 43.3837 43.1641Z" fill="#3A3A3A"/>
<path d="M36.5488 49.663L36.0623 49.3828L35.5763 49.663L36.0623 49.9427L36.5488 49.663Z" fill="#5B2907"/>
<path d="M36.0568 52.5033L38.2528 53.7679V54.0333L36.0586 52.7544L36.0568 52.5033Z" fill="#5B2907"/>
<path d="M36.0568 52.5032L36.2788 52.3749L38.4715 53.6418L38.2528 53.7678L36.0568 52.5032Z" fill="#6D360C"/>
<path d="M39.1297 57.7671L37.7903 48.3752L37.3015 48.6577L38.2177 57.2395L39.1297 57.7671Z" fill="#6D360C"/>
<path d="M38.4715 54.1602L36.276 55.4252V55.6906L38.4702 54.4126L38.4715 54.1602Z" fill="#B75513"/>
<path d="M38.4715 54.1602L38.25 54.0323L36.0568 55.2984L36.276 55.4253L38.4715 54.1602Z" fill="#5B2907"/>
<path d="M36.0568 52.531L33.8598 53.7961V54.061L36.054 52.7825L36.0568 52.531Z" fill="#B75513"/>
<path d="M36.0568 52.531L35.8352 52.4027L33.6411 53.6696L33.8599 53.7961L36.0568 52.531Z" fill="#5B2907"/>
<path d="M36.0623 59.5385V49.3828L36.5515 49.6644L36.9752 59.0124L36.0623 59.5385Z" fill="#A34F11"/>
<path d="M39.1297 57.7671L37.7903 48.3752L37.3015 48.6577" fill="#5B2907"/>
<path d="M39.1297 57.7671L37.7903 48.3752L38.2795 48.6577L40.0422 57.2395L39.1297 57.7671Z" fill="#A34F11"/>
<path d="M38.2763 48.6549L37.7903 48.3752L37.3052 48.6549L37.7903 48.936L38.2763 48.6549Z" fill="#5B2907"/>
<path d="M32.9954 57.7671L34.3352 48.3752L33.8455 48.6577L32.0834 57.2395L32.9954 57.7671Z" fill="#6D360C"/>
<path d="M32.9954 57.7671L34.3352 48.3752L33.8455 48.6577" fill="#5B2907"/>
<path d="M32.9954 57.7671L34.3352 48.3752L34.8235 48.6577L33.9079 57.2395L32.9954 57.7671Z" fill="#A34F11"/>
<path d="M33.6411 54.1602L35.8366 55.4252V55.6906L33.6439 54.4126L33.6411 54.1602Z" fill="#5B2907"/>
<path d="M33.6411 54.1602L33.8626 54.0323L36.0568 55.2984L35.8366 55.4253L33.6411 54.1602Z" fill="#6D360C"/>
<path d="M36.0623 59.5385V49.3828L35.5735 49.6644L35.1499 59.0124L36.0623 59.5385Z" fill="#6D360C"/>
<path d="M36.0623 59.5385V49.3828L35.5735 49.6644" fill="#5B2907"/>
<path d="M34.8208 48.6549L34.3352 48.3752L33.8483 48.6549L34.3352 48.936L34.8208 48.6549Z" fill="#5B2907"/>
<path d="M36.0586 49.8005V50.9446L33.0983 49.2305V48.0891L36.0586 49.8005Z" fill="#BA7625"/>
<path d="M36.0632 49.8005V50.9446L39.0226 49.2305V48.0891L36.0632 49.8005Z" fill="#A3540D"/>
<path d="M36.0632 49.8005V50.3723L39.0226 49.2305V48.0891L36.0632 49.8005Z" fill="#91480C"/>
<path d="M33.0983 47.5177V48.6586L36.0586 50.3723V49.2291L33.0983 47.5177Z" fill="#A34D0D"/>
<path d="M36.0586 50.3723V49.2291L33.0983 47.5177" fill="#934607"/>
<path d="M36.0632 49.2291V50.3723L39.0226 48.6586V47.5177L36.0632 49.2291Z" fill="#703207"/>
<path d="M39.0226 47.5177L36.0632 49.2291V50.3723" fill="#5E2905"/>
<path d="M33.0983 47.5177L36.0586 49.229L37.2475 48.5437L39.0263 47.5177L36.0632 45.8063L33.0983 47.5177Z" fill="#D38129"/>
<path d="M33.0983 47.5177L36.0586 49.2291L37.2475 48.5437L39.0263 47.5177" fill="#B76A1D"/>
<path d="M38.5232 47.4342V46.8822H37.8785L36.5432 46.1123C36.2529 45.9443 35.7771 45.9443 35.4868 46.1123L34.1538 46.8822H33.5086V47.4305C33.5077 47.5422 33.5797 47.6539 33.726 47.7392L35.4872 48.7556C35.7775 48.924 36.2534 48.924 36.5437 48.7556L38.3049 47.7392C38.4337 47.6649 38.5015 47.5703 38.5168 47.4734H38.5232V47.4342Z" fill="#474746"/>
<path d="M35.4872 46.1123L34.1538 46.8822H33.5086V47.4305C33.5077 47.5422 33.5797 47.6539 33.726 47.7392L35.4872 48.7556C35.7775 48.924 36.2534 48.924 36.5437 48.7556V46.1123C36.2534 45.9443 35.7775 45.9443 35.4872 46.1123Z" fill="#1E1E1D"/>
<path d="M38.3049 46.5951L36.5437 45.5783C36.2534 45.4108 35.7775 45.4108 35.4872 45.5783L33.726 46.5951C33.4357 46.7626 33.4357 47.0377 33.726 47.2052L35.4872 48.222C35.7775 48.3895 36.2534 48.3895 36.5437 48.222L38.3049 47.2052C38.5962 47.0377 38.5962 46.7626 38.3049 46.5951Z" fill="#5B5B59"/>
<path d="M36.5437 45.5783C36.2534 45.4108 35.7775 45.4108 35.4872 45.5783L33.726 46.5951C33.4357 46.7626 33.4357 47.0377 33.726 47.2052L35.4872 48.222C35.7775 48.3895 36.2534 48.3895 36.5437 48.222" fill="#474746"/>
<path d="M34.7622 47.0182C34.8074 47.044 34.8614 47.056 34.8822 47.0436C34.9029 47.0316 34.9454 47.0071 34.9768 46.9891C35.0072 46.972 34.9957 46.9351 34.9505 46.9088C34.9052 46.883 34.8254 46.8862 34.7737 46.9162C34.722 46.9462 34.7174 46.991 34.7622 47.0182Z" fill="#3A3A3A"/>
<path d="M35.1429 46.7986C35.1891 46.8254 35.2431 46.8369 35.2639 46.8254C35.2846 46.8129 35.3271 46.788 35.3575 46.7709C35.388 46.7524 35.3774 46.7169 35.3312 46.6901C35.286 46.6643 35.2066 46.667 35.1545 46.697C35.1032 46.727 35.0977 46.7727 35.1429 46.7986Z" fill="#3A3A3A"/>
<path d="M35.5232 46.5807C35.5694 46.6065 35.6234 46.6176 35.6442 46.6065C35.6649 46.595 35.7074 46.5701 35.7388 46.5521C35.7692 46.5341 35.7577 46.4985 35.7125 46.4718C35.6663 46.4455 35.5874 46.4492 35.5357 46.4787C35.4845 46.5082 35.478 46.5535 35.5232 46.5807Z" fill="#3A3A3A"/>
<path d="M35.9045 46.3614C35.9497 46.3878 36.0037 46.3993 36.0254 46.3873C36.0462 46.3758 36.0886 46.3508 36.1191 46.3328C36.1495 46.3153 36.1389 46.2798 36.0928 46.2525C36.0475 46.2262 35.9682 46.2294 35.916 46.2599C35.8648 46.289 35.8592 46.3356 35.9045 46.3614Z" fill="#3A3A3A"/>
<path d="M36.2857 46.1427C36.3309 46.1695 36.3849 46.1806 36.4057 46.1686C36.4265 46.157 36.4689 46.1326 36.4994 46.1146C36.5308 46.097 36.5192 46.0601 36.4731 46.0347C36.4279 46.0084 36.3485 46.0112 36.2972 46.0416C36.2451 46.0702 36.24 46.1164 36.2857 46.1427Z" fill="#3A3A3A"/>
<path d="M35.2454 47.3034C35.2906 47.3302 35.3446 47.3422 35.3654 47.3302C35.3862 47.3182 35.4286 47.2933 35.46 47.2757C35.4905 47.2582 35.4789 47.2217 35.4328 47.1954C35.3875 47.1691 35.3082 47.1714 35.2569 47.2019C35.2048 47.2319 35.1997 47.2785 35.2454 47.3034Z" fill="#3A3A3A"/>
<path d="M35.6257 47.0856C35.6709 47.1115 35.7249 47.1226 35.7457 47.1115C35.7674 47.0995 35.8099 47.0755 35.8403 47.057C35.8708 47.039 35.8592 47.003 35.814 46.9767C35.7688 46.9504 35.6889 46.9532 35.6372 46.9836C35.5855 47.0141 35.5809 47.0593 35.6257 47.0856Z" fill="#3A3A3A"/>
<path d="M36.0065 46.8664C36.0526 46.8927 36.1066 46.9042 36.1274 46.8918C36.1482 46.8802 36.1906 46.8562 36.2211 46.8382C36.2525 46.8202 36.2409 46.7847 36.1957 46.7575C36.1496 46.7316 36.0706 46.7344 36.0189 46.7648C35.9668 46.7948 35.9612 46.8401 36.0065 46.8664Z" fill="#3A3A3A"/>
<path d="M36.3877 46.6481C36.4329 46.674 36.4869 46.685 36.5077 46.6735C36.5285 46.6615 36.5709 46.637 36.6023 46.6195C36.6328 46.601 36.6212 46.5655 36.576 46.5387C36.5308 46.5129 36.4509 46.5161 36.3992 46.5456C36.3471 46.5752 36.3425 46.6213 36.3877 46.6481Z" fill="#3A3A3A"/>
<path d="M36.768 46.4293C36.8132 46.4556 36.8682 46.4671 36.8889 46.4547C36.9097 46.4431 36.9522 46.4191 36.9835 46.4011C37.0131 46.3831 37.0025 46.3467 36.9563 46.3204C36.9111 46.2941 36.8317 46.2973 36.7795 46.3268C36.7283 46.3564 36.7228 46.403 36.768 46.4293Z" fill="#3A3A3A"/>
<path d="M35.7277 47.5901C35.7739 47.6174 35.8269 47.628 35.8486 47.6164C35.8694 47.604 35.9119 47.58 35.9423 47.5615C35.9737 47.5444 35.9622 47.508 35.916 47.4817C35.8699 47.4554 35.7914 47.459 35.7392 47.4886C35.6871 47.5181 35.6825 47.5643 35.7277 47.5901Z" fill="#3A3A3A"/>
<path d="M36.108 47.3713C36.1542 47.3977 36.2082 47.4092 36.2289 47.3977C36.2497 47.3861 36.2922 47.3612 36.3226 47.3432C36.354 47.3261 36.3425 47.2892 36.2972 47.2633C36.2511 47.237 36.1722 47.2398 36.1205 47.2703C36.0683 47.2989 36.0642 47.345 36.108 47.3713Z" fill="#3A3A3A"/>
<path d="M36.4897 47.153C36.5349 47.1784 36.5889 47.1908 36.6106 47.1784C36.6305 47.1668 36.6739 47.1414 36.7043 47.1244C36.7348 47.1064 36.7232 47.0704 36.678 47.0441C36.6328 47.0182 36.5534 47.0214 36.5012 47.0514C36.45 47.081 36.4445 47.1267 36.4897 47.153Z" fill="#3A3A3A"/>
<path d="M36.87 46.9337C36.9162 46.96 36.9702 46.9716 36.9909 46.9596C37.0117 46.9485 37.0542 46.9226 37.0846 46.9051C37.116 46.888 37.1036 46.8516 37.0583 46.8253C37.0131 46.7985 36.9337 46.8022 36.8825 46.8322C36.8303 46.8617 36.8248 46.9079 36.87 46.9337Z" fill="#3A3A3A"/>
<path d="M37.2512 46.715C37.2965 46.7413 37.3505 46.7524 37.3712 46.7413C37.392 46.7293 37.4345 46.7044 37.4658 46.6864C37.4963 46.6693 37.4848 46.6328 37.4395 46.6065C37.3943 46.5807 37.3145 46.5825 37.2628 46.6139C37.2106 46.643 37.206 46.6901 37.2512 46.715Z" fill="#3A3A3A"/>
<path d="M32.8648 43.8679L32.6954 43.7677L32.6926 35.2375L32.8648 35.3359V43.8679Z" fill="#702D0F"/>
<path d="M32.862 35.3363L32.6926 35.2394L36.7408 32.9017L36.9097 32.9996L32.862 35.3363Z" fill="#8E2D06"/>
<path d="M36.9125 32.9996V41.5312L32.8639 43.8679V35.3364L36.9125 32.9996Z" fill="#D33218"/>
<path d="M32.8639 43.8679V35.3364L36.9125 32.9996" fill="#D33218"/>
<path d="M36.6859 33.8303V41.4088L33.09 43.4848V35.9063L36.6859 33.8303Z" fill="#702D0F"/>
<path d="M36.576 41.3627V33.8945L33.09 35.9064V43.375L36.576 41.3627Z" fill="#8E2D06"/>
</svg>
