<svg width="24" height="25" viewBox="0 0 24 25" fill="none" xmlns="http://www.w3.org/2000/svg">
<path d="M12 4.40491C13.0609 4.40491 14.0783 4.82633 14.8284 5.57648C15.5786 6.32663 16 7.34404 16 8.40491C16 9.46577 15.5786 10.4832 14.8284 11.2333C14.0783 11.9835 13.0609 12.4049 12 12.4049C10.9391 12.4049 9.92172 11.9835 9.17157 11.2333C8.42143 10.4832 8 9.46577 8 8.40491C8 7.34404 8.42143 6.32663 9.17157 5.57648C9.92172 4.82633 10.9391 4.40491 12 4.40491ZM12 14.4049C16.42 14.4049 20 16.1949 20 18.4049V20.4049H4V18.4049C4 16.1949 7.58 14.4049 12 14.4049Z" fill="white"/>
</svg>
