<svg width="32" height="32" viewBox="0 0 32 32" fill="none" xmlns="http://www.w3.org/2000/svg">
<path fill-rule="evenodd" clip-rule="evenodd" d="M12.6667 16.7383C16.3395 16.7383 19.2835 13.7562 19.2835 10.0358C19.2835 6.31555 16.3395 3.33337 12.6667 3.33337C8.9939 3.33337 6.04982 6.31555 6.04982 10.0358C6.04982 13.7562 8.9939 16.7383 12.6667 16.7383ZM12.6667 20.0203C7.27229 20.0203 2.66666 20.8828 2.66666 24.3286C2.66666 27.7731 7.24426 28.6667 12.6667 28.6667C18.0597 28.6667 22.6667 27.8042 22.6667 24.3583C22.6667 20.9126 18.0891 20.0203 12.6667 20.0203ZM26.5305 12.7839H28.1347C28.7949 12.7839 29.3333 13.3298 29.3333 13.9994C29.3333 14.6688 28.7949 15.2148 28.1347 15.2148H26.5305V16.7846C26.5305 17.4542 25.9936 18 25.332 18C24.6717 18 24.1333 17.4542 24.1333 16.7846V15.2148H22.532C21.8703 15.2148 21.3333 14.6688 21.3333 13.9994C21.3333 13.3298 21.8703 12.7839 22.532 12.7839H24.1333V11.2155C24.1333 10.546 24.6717 10 25.332 10C25.9936 10 26.5305 10.546 26.5305 11.2155V12.7839Z" fill="white"/>
</svg>
