<svg width="25" height="25" viewBox="0 0 25 25" fill="none" xmlns="http://www.w3.org/2000/svg">
<g clip-path="url(#clip0_176_346)">
<path fill-rule="evenodd" clip-rule="evenodd" d="M10.7388 2.40491C9.38337 2.40502 8.04765 2.72927 6.84304 3.3506C5.63843 3.97193 4.59987 4.87233 3.81402 5.97666C3.02816 7.081 2.51779 8.35726 2.32549 9.69895C2.13319 11.0407 2.26453 12.4089 2.70856 13.6895C3.15259 14.9701 3.89643 16.126 4.87802 17.0606C5.85961 17.9953 7.05049 18.6817 8.35129 19.0625C9.6521 19.4433 11.0251 19.5076 12.3558 19.2498C13.6865 18.9921 14.9362 18.4199 16.0008 17.5809L19.6528 21.2329C19.8414 21.4151 20.094 21.5159 20.3562 21.5136C20.6184 21.5113 20.8692 21.4061 21.0546 21.2207C21.24 21.0353 21.3452 20.7845 21.3475 20.5223C21.3497 20.2601 21.2489 20.0075 21.0668 19.8189L17.4148 16.1669C18.4028 14.9135 19.0179 13.4073 19.1899 11.8206C19.3618 10.234 19.0836 8.63093 18.387 7.195C17.6904 5.75907 16.6037 4.54826 15.2511 3.70114C13.8985 2.85401 12.3347 2.4048 10.7388 2.40491ZM4.23878 10.9049C4.23878 9.181 4.9236 7.5277 6.14259 6.30871C7.36157 5.08973 9.01487 4.40491 10.7388 4.40491C12.4627 4.40491 14.116 5.08973 15.335 6.30871C16.554 7.5277 17.2388 9.181 17.2388 10.9049C17.2388 12.6288 16.554 14.2821 15.335 15.5011C14.116 16.7201 12.4627 17.4049 10.7388 17.4049C9.01487 17.4049 7.36157 16.7201 6.14259 15.5011C4.9236 14.2821 4.23878 12.6288 4.23878 10.9049Z" fill="rgba(255,255,255,0.7)"/>
</g>
<defs>
<clipPath id="clip0_176_346">
<rect width="24" height="24" fill="white" transform="translate(0.23877 0.404907)"/>
</clipPath>
</defs>
</svg>
