<svg width="24" height="25" viewBox="0 0 24 25" fill="none" xmlns="http://www.w3.org/2000/svg">
<path d="M4.51193 19.6049H19.4879C20.619 18.1937 21.3283 16.4916 21.5342 14.6949C21.74 12.8981 21.434 11.0797 20.6514 9.4493C19.8688 7.81888 18.6414 6.44275 17.1108 5.4795C15.5801 4.51624 13.8084 4.00507 11.9999 4.00488C10.1914 4.00507 8.41973 4.51624 6.88908 5.4795C5.35842 6.44275 4.13107 7.81888 3.34847 9.4493C2.56586 11.0797 2.25985 12.8981 2.4657 14.6949C2.67154 16.4916 3.38086 18.1937 4.51193 19.6049ZM11.9999 5.20488C12.6599 5.20488 13.1999 5.74488 13.1999 6.40488C13.1999 7.06488 12.6599 7.60488 11.9999 7.60488C11.3399 7.60488 10.7999 7.06488 10.7999 6.40488C10.7999 5.74488 11.3399 5.20488 11.9999 5.20488ZM7.19993 7.60488C7.85993 7.60488 8.39993 8.14488 8.39993 8.80488C8.39993 9.46488 7.85993 10.0049 7.19993 10.0049C6.53993 10.0049 5.99993 9.46488 5.99993 8.80488C5.99993 8.14488 6.53993 7.60488 7.19993 7.60488ZM16.7999 7.60488C17.4599 7.60488 17.9999 8.14488 17.9999 8.80488C17.9999 9.46488 17.4599 10.0049 16.7999 10.0049C16.1399 10.0049 15.5999 9.46488 15.5999 8.80488C15.5999 8.14488 16.1399 7.60488 16.7999 7.60488ZM10.3559 14.2649L14.3999 8.80488V16.0049C14.3999 17.3249 13.3199 18.4049 11.9999 18.4049C10.6799 18.4049 9.59993 17.3249 9.59993 16.0049C9.59993 15.3209 9.88793 14.7089 10.3559 14.2649ZM4.79993 12.4049C5.45993 12.4049 5.99993 12.9449 5.99993 13.6049C5.99993 14.2649 5.45993 14.8049 4.79993 14.8049C4.13993 14.8049 3.59993 14.2649 3.59993 13.6049C3.59993 12.9449 4.13993 12.4049 4.79993 12.4049ZM19.1999 12.4049C19.8599 12.4049 20.3999 12.9449 20.3999 13.6049C20.3999 14.2649 19.8599 14.8049 19.1999 14.8049C18.5399 14.8049 17.9999 14.2649 17.9999 13.6049C17.9999 12.9449 18.5399 12.4049 19.1999 12.4049ZM13.1999 16.0049C13.1999 15.3449 12.6599 14.8049 11.9999 14.8049C11.3399 14.8049 10.7999 15.3449 10.7999 16.0049C10.7999 16.6649 11.3399 17.2049 11.9999 17.2049C12.6599 17.2049 13.1999 16.6649 13.1999 16.0049Z" fill="white" /></svg>