<svg xmlns="http://www.w3.org/2000/svg" viewBox="0 0 21 21">
  <defs>
    <style>
      .cls-1 {
        fill: transparent;
      }

      .cls-2 {
        fill: #515365;
      }
    </style>
  </defs>
  <g id="Group_2845" data-name="Group 2845" transform="translate(307 1346) rotate(180)">
    <path id="Path_258" data-name="Path 258" class="cls-1" d="M10.5,0A10.5,10.5,0,1,0,21,10.5,10.5,10.5,0,0,0,10.5,0Z" transform="translate(286 1325)"/>
    <path id="Path_1494" data-name="Path 1494" class="cls-2" d="M8.22-11.228a.248.248,0,0,0-.072-.166l-.36-.36a.248.248,0,0,0-.166-.072.248.248,0,0,0-.166.072L4.625-8.923,1.795-11.754a.248.248,0,0,0-.166-.072.234.234,0,0,0-.166.072l-.36.36a.248.248,0,0,0-.072.166.248.248,0,0,0,.072.166L4.46-7.706a.248.248,0,0,0,.166.072.248.248,0,0,0,.166-.072l3.356-3.356A.248.248,0,0,0,8.22-11.228Z" transform="translate(306.826 1340.22) rotate(-90)"/>
  </g>
</svg>
