<svg width="24" height="25" viewBox="0 0 24 25" fill="none" xmlns="http://www.w3.org/2000/svg">
<g clip-path="url(#clip0_179_393)">
<path d="M11.25 16.9049L10.1925 17.9624L12.1275 19.9049H3V6.40491H1.5V19.9049C1.5 20.7322 2.17275 21.4049 3 21.4049H12.1275L10.1925 23.3474L11.25 24.4049L15 20.6549L11.25 16.9049Z" fill="white"/>
<path d="M8.25 13.1549C8.66421 13.1549 9 12.8191 9 12.4049C9 11.9907 8.66421 11.6549 8.25 11.6549C7.83579 11.6549 7.5 11.9907 7.5 12.4049C7.5 12.8191 7.83579 13.1549 8.25 13.1549Z" fill="white"/>
<path d="M18 15.4049H6C5.17275 15.4049 4.5 14.7322 4.5 13.9049V10.9049C4.5 10.0777 5.17275 9.40491 6 9.40491H18C18.8273 9.40491 19.5 10.0777 19.5 10.9049V13.9049C19.5 14.7322 18.8273 15.4049 18 15.4049ZM6 10.9049V13.9049H18V10.9049H6Z" fill="white"/>
<path d="M21 3.40491H11.8725L13.8075 1.46241L12.75 0.404907L9 4.15491L12.75 7.90491L13.8075 6.84741L11.8725 4.90491H21V18.4049H22.5V4.90491C22.5 4.07841 21.8273 3.40491 21 3.40491Z" fill="white"/>
</g>
<defs>
<clipPath id="clip0_179_393">
<rect width="24" height="24" fill="white" transform="translate(0 0.404907)"/>
</clipPath>
</defs>
</svg>
