<svg width="24" height="25" viewBox="0 0 24 25" fill="none" xmlns="http://www.w3.org/2000/svg">
<path d="M12.75 5.40491C12.75 5.60382 12.671 5.79459 12.5303 5.93524C12.3897 6.07589 12.1989 6.15491 12 6.15491H6C5.9337 6.15491 5.87011 6.18125 5.82322 6.22813C5.77634 6.27501 5.75 6.3386 5.75 6.40491L5.75 18.4049C5.75 18.4712 5.77634 18.5348 5.82322 18.5817C5.87011 18.6286 5.9337 18.6549 6 18.6549H12C12.1989 18.6549 12.3897 18.7339 12.5303 18.8746C12.671 19.0152 12.75 19.206 12.75 19.4049C12.75 19.6038 12.671 19.7946 12.5303 19.9352C12.3897 20.0759 12.1989 20.1549 12 20.1549H6C5.034 20.1549 4.25 19.3709 4.25 18.4049L4.25 6.40491C4.25 5.94078 4.43437 5.49566 4.76256 5.16747C5.09075 4.83928 5.53587 4.65491 6 4.65491H12C12.1989 4.65491 12.3897 4.73392 12.5303 4.87458C12.671 5.01523 12.75 5.20599 12.75 5.40491Z" fill="white"/>
<path d="M8.38791 11.2899C8.38791 11.0247 8.49327 10.7703 8.6808 10.5828C8.86834 10.3952 9.12269 10.2899 9.38791 10.2899L14.2439 10.2899C14.2669 9.93389 14.2959 9.57989 14.3299 9.22389L14.3599 8.91889C14.3711 8.80394 14.4098 8.69339 14.4728 8.5966C14.5358 8.49981 14.6213 8.41966 14.7219 8.36293C14.8225 8.3062 14.9353 8.27458 15.0507 8.27074C15.1661 8.26691 15.2808 8.29097 15.3849 8.34089C17.2129 9.217 18.8678 10.4159 20.2699 11.8799L20.2999 11.9109C20.4286 12.0451 20.5005 12.2239 20.5005 12.4099C20.5005 12.5959 20.4286 12.7747 20.2999 12.9089L20.2699 12.9399C18.8678 14.4039 17.2129 15.6028 15.3849 16.4789C15.2808 16.5288 15.1661 16.5529 15.0507 16.549C14.9353 16.5452 14.8225 16.5136 14.7219 16.4569C14.6213 16.4001 14.5358 16.32 14.4728 16.2232C14.4098 16.1264 14.3711 16.0158 14.3599 15.9009L14.3299 15.5959C14.2959 15.2409 14.2669 14.8859 14.2439 14.5299L9.38791 14.5299C9.12269 14.5299 8.86834 14.4245 8.6808 14.237C8.49327 14.0495 8.38791 13.7951 8.38791 13.5299V11.2899Z" fill="white"/>
</svg>
