<svg width="60" height="60" viewBox="0 0 60 60" fill="none" xmlns="http://www.w3.org/2000/svg">
<path d="M30 58.125C45.533 58.125 58.125 45.533 58.125 30C58.125 14.467 45.533 1.875 30 1.875C14.467 1.875 1.875 14.467 1.875 30C1.875 45.533 14.467 58.125 30 58.125Z" fill="#382B73"/>
<path d="M30 54.0234C43.2678 54.0234 54.0234 43.2678 54.0234 30C54.0234 16.7322 43.2678 5.97656 30 5.97656C16.7322 5.97656 5.97656 16.7322 5.97656 30C5.97656 43.2678 16.7322 54.0234 30 54.0234Z" fill="#473080"/>
<path d="M39.0516 12.9686H36.6227H23.3773H20.9482C20.1581 12.9686 19.5173 13.6092 19.5173 14.3995V48.8817C19.5173 49.672 20.1579 50.3125 20.9482 50.3125H23.377H36.6225H39.0513C39.8414 50.3125 40.4822 49.672 40.4822 48.8817V14.3995C40.4824 13.6094 39.8419 12.9686 39.0516 12.9686Z" fill="#382B73"/>
<path d="M39.0516 48.6719H20.9482C20.1581 48.6719 19.5173 48.0314 19.5173 47.2411V12.7589C19.5173 11.9688 20.1579 11.328 20.9482 11.328H39.0516C39.8419 11.328 40.4824 11.9685 40.4824 12.7589V47.2411C40.4824 48.0314 39.8419 48.6719 39.0516 48.6719Z" fill="#E6E7E8"/>
<path d="M36.6227 48.6719H23.3773C22.6929 48.6719 22.1381 48.1171 22.1381 47.4328V12.5671C22.1381 11.8828 22.6929 11.328 23.3773 11.328H36.6227C37.3071 11.328 37.8619 11.8828 37.8619 12.5671V47.4328C37.8619 48.1171 37.3071 48.6719 36.6227 48.6719Z" fill="white"/>
<path d="M38.1154 46.1463H21.8845C21.3243 46.1463 20.8701 45.6921 20.8701 45.1319V14.868C20.8701 14.3079 21.3243 13.8536 21.8845 13.8536H38.1154C38.6756 13.8536 39.1298 14.3079 39.1298 14.868V45.1319C39.1298 45.6921 38.6756 46.1463 38.1154 46.1463Z" fill="#1CAEE4"/>
<path d="M31.6802 13.0717H28.32C28.0572 13.0717 27.8444 12.8589 27.8444 12.5962C27.8444 12.3337 28.0572 12.1206 28.32 12.1206H31.6802C31.9429 12.1206 32.1557 12.3334 32.1557 12.5962C32.1555 12.8587 31.9427 13.0717 31.6802 13.0717Z" fill="#BCBEC0"/>
<path d="M31.6802 47.8793H28.32C28.0572 47.8793 27.8444 47.6665 27.8444 47.4038C27.8444 47.1413 28.0572 46.9282 28.32 46.9282H31.6802C31.9429 46.9282 32.1557 47.141 32.1557 47.4038C32.1555 47.6665 31.9427 47.8793 31.6802 47.8793Z" fill="white"/>
<path d="M38.1154 13.8536H21.8845C21.3243 13.8536 20.8701 14.3079 20.8701 14.868V15.8824H39.1298V14.868C39.1298 14.3079 38.6756 13.8536 38.1154 13.8536Z" fill="#136DA0"/>
<path d="M39.1298 44.1175L39.1298 15.8823H37.8619L37.8619 44.1175H39.1298Z" fill="#009ADD"/>
<path d="M38.1154 46.1463H21.8845C21.3243 46.1463 20.8701 45.6921 20.8701 45.1319V44.1176H39.1298V45.1319C39.1298 45.6921 38.6756 46.1463 38.1154 46.1463Z" fill="#136DA0"/>
<path d="M22.1381 44.1176L22.1381 15.8824H20.8701L20.8701 44.1176H22.1381Z" fill="#009ADD"/>
<path d="M36.6645 25.9783C36.6445 25.8804 36.6054 25.7894 36.5512 25.7093C36.4971 25.6293 36.4282 25.5602 36.348 25.5061C36.228 25.425 36.0832 25.3776 35.9273 25.3776H35.8371V25.2497V24.8636V24.5076C35.8371 24.3848 35.8123 24.2676 35.7673 24.1612C35.7448 24.108 35.7171 24.0574 35.6852 24.01C35.5252 23.7733 35.2542 23.6177 34.9472 23.6177H33.9075C33.9834 23.3088 34.028 22.9877 34.028 22.6556C34.028 22.5511 34.0202 22.4484 34.0123 22.3457C34.02 22.2431 34.028 22.1404 34.028 22.0359C34.028 19.8112 32.2247 18.0079 30 18.0079C27.7755 18.0079 25.972 19.8112 25.972 22.0359C25.972 22.1404 25.9798 22.2431 25.9877 22.3457C25.98 22.4484 25.972 22.5511 25.972 22.6556C25.972 22.9879 26.0168 23.309 26.0925 23.6177H24.2105C23.9032 23.6177 23.6323 23.7733 23.4724 24.01C23.4405 24.0574 23.4129 24.108 23.3904 24.1612C23.3459 24.2664 23.3215 24.3822 23.3208 24.5036C23.3208 24.5022 23.3203 24.5008 23.3203 24.4994V24.5076V24.8554V24.8636V25.2497V25.3776V33.5116V34.2236C23.3203 34.3275 23.3414 34.4264 23.3794 34.5164C23.4366 34.6514 23.532 34.7662 23.652 34.8473C23.772 34.9284 23.9168 34.9757 24.0724 34.9757H35.9273C36.0832 34.9757 36.2278 34.9284 36.348 34.8473C36.468 34.7662 36.5634 34.6514 36.6206 34.5164C36.6586 34.4264 36.6797 34.3275 36.6797 34.2236V33.5116V32.0531V31.6971V31.3411V29.0784V28.7224V26.486V26.13C36.6797 26.0782 36.6743 26.0273 36.6645 25.9783Z" fill="#009ADD"/>
<path d="M34.947 22.9146H24.2105C23.7187 22.9146 23.3203 23.313 23.3203 23.8047V24.6747H35.8371V23.8047C35.8371 23.313 35.4387 22.9146 34.947 22.9146Z" fill="#E43C90"/>
<path d="M34.947 22.9146H24.2105C23.7187 22.9146 23.3203 23.3132 23.3203 23.8047V24.1607C23.3203 23.669 23.7187 23.2706 24.2105 23.2706H34.947C35.4387 23.2706 35.8371 23.6692 35.8371 24.1607V23.8047C35.8371 23.313 35.4387 22.9146 34.947 22.9146Z" fill="#EF6EA8"/>
<path d="M35.085 23.7947H24.0727C23.6571 23.7947 23.3206 24.1315 23.3206 24.5468V24.6748H35.8374V24.5468C35.8371 24.1315 35.5006 23.7947 35.085 23.7947Z" fill="#A62973"/>
<path d="M33.993 22.4795C34.2837 20.2741 32.7316 18.2505 30.5261 17.9597C28.3206 17.669 26.2971 19.2211 26.0063 21.4266C25.7156 23.632 27.2677 25.6556 29.4732 25.9464C31.6786 26.2371 33.7022 24.685 33.993 22.4795Z" fill="#E7AD27"/>
<path d="M30 25.3605C32.2245 25.3605 34.0279 23.5571 34.0279 21.3325C34.0279 19.1079 32.2245 17.3046 30 17.3046C27.7754 17.3046 25.972 19.1079 25.972 21.3325C25.972 23.5571 27.7754 25.3605 30 25.3605Z" fill="#FEDE3A"/>
<path d="M32.94 22.0243C33.3212 20.4002 32.3136 18.7745 30.6894 18.3932C29.0653 18.012 27.4396 19.0196 27.0584 20.6438C26.6771 22.268 27.6847 23.8936 29.3089 24.2749C30.9331 24.6561 32.5588 23.6485 32.94 22.0243Z" fill="#F7CB15"/>
<path d="M30 18.5355C31.6305 18.5355 32.9559 19.8283 33.0152 21.4445C33.0166 21.407 33.0208 21.3705 33.0208 21.3327C33.0208 19.6642 31.6683 18.3119 30 18.3119C28.3315 18.3119 26.9791 19.6645 26.9791 21.3327C26.9791 21.3705 26.9833 21.4073 26.9848 21.4445C27.044 19.8283 28.3694 18.5355 30 18.5355Z" fill="#E7AD27"/>
<path d="M31.2747 22.2288C31.2747 22.0338 31.2358 21.8615 31.1592 21.7167C31.0825 21.5723 30.9675 21.4467 30.8168 21.3433C30.675 21.2461 30.461 21.1497 30.1629 21.0485C29.8464 20.9409 29.7009 20.845 29.6341 20.7832C29.5854 20.7382 29.5525 20.6807 29.5345 20.6102C29.5279 20.5846 29.5279 20.5568 29.5345 20.5312C29.5546 20.452 29.5929 20.3861 29.6505 20.3322C29.7429 20.2455 29.8753 20.2033 30.055 20.2033C30.2264 20.2033 30.3555 20.2553 30.45 20.3625C30.5505 20.4764 30.5993 20.632 30.5993 20.838C30.5993 20.9388 30.6808 21.0203 30.7816 21.0203H31.0661C31.1669 21.0203 31.2485 20.9388 31.2485 20.838C31.2485 20.8298 31.2471 20.8225 31.2468 20.8146H31.2485V20.6322C31.2485 20.2729 31.1566 19.9807 30.9754 19.7634C30.8493 19.6125 30.6883 19.5051 30.4945 19.4428C30.4188 19.4184 30.3668 19.349 30.3668 19.2696V19.1071V19.0837C30.3668 18.9829 30.2852 18.9014 30.1844 18.9014H29.9407C29.8399 18.9014 29.7583 18.9829 29.7583 19.0837V19.1071V19.2649C29.7583 19.3455 29.7049 19.4161 29.6275 19.439C29.4436 19.4939 29.2872 19.586 29.1607 19.7144C28.9673 19.9106 28.8691 20.1665 28.8691 20.4745C28.8691 20.5111 28.8747 20.5446 28.8775 20.5797C28.875 20.6135 28.8691 20.6454 28.8691 20.6805C28.8691 20.9739 28.9589 21.2189 29.1356 21.4085C29.3041 21.5889 29.5776 21.7368 29.9669 21.8592C30.2943 21.9726 30.4408 22.0725 30.506 22.1362C30.5461 22.1754 30.5751 22.2204 30.5943 22.2717C30.61 22.3139 30.6103 22.361 30.5941 22.4029C30.57 22.4657 30.5304 22.5199 30.4739 22.5679C30.3642 22.661 30.2219 22.7062 30.0386 22.7062C29.8263 22.7062 29.6693 22.6539 29.5586 22.5464C29.4494 22.4402 29.3964 22.2918 29.3964 22.0929C29.3964 21.9921 29.3146 21.9105 29.2141 21.9105H28.9275C28.8267 21.9105 28.7451 21.9921 28.7451 22.0929C28.7451 22.1011 28.7468 22.1083 28.747 22.1163H28.7451V22.2986C28.7451 22.66 28.8508 22.9525 29.0594 23.1677C29.2043 23.3172 29.3899 23.4208 29.6135 23.4778C29.6943 23.4984 29.7513 23.5706 29.7513 23.6538V23.7712V23.7946C29.7513 23.8954 29.8331 23.977 29.9336 23.977H30.175C30.2758 23.977 30.3574 23.8954 30.3574 23.7946V23.7712V23.6454C30.3574 23.5638 30.412 23.4925 30.4905 23.4705C30.6825 23.4166 30.8449 23.3252 30.9754 23.1972C31.1742 23.0022 31.275 22.7458 31.275 22.435C31.275 22.391 31.2724 22.3486 31.2684 22.3068C31.2696 22.2804 31.2747 22.256 31.2747 22.2288Z" fill="#E7AD27"/>
<path d="M31.1589 21.7169C31.0823 21.5725 30.9672 21.4469 30.8165 21.3436C30.6747 21.2463 30.4607 21.1497 30.1626 21.0487C29.8462 20.9411 29.7006 20.8453 29.6341 20.7834C29.556 20.7112 29.5181 20.6083 29.5181 20.4686C29.5181 20.3221 29.5614 20.2101 29.6505 20.1264C29.7428 20.0397 29.8753 19.9975 30.055 19.9975C30.2263 19.9975 30.3555 20.0496 30.4499 20.1567C30.5505 20.2706 30.5992 20.4262 30.5992 20.6322C30.5992 20.733 30.6808 20.8146 30.7816 20.8146H31.0661C31.1669 20.8146 31.2485 20.733 31.2485 20.6322C31.2485 20.2729 31.1566 19.9807 30.9754 19.7634C30.8493 19.6125 30.6883 19.5051 30.4942 19.4428C30.4185 19.4184 30.3665 19.349 30.3665 19.2696V19.0837C30.3665 18.9829 30.2849 18.9014 30.1842 18.9014H29.9404C29.8396 18.9014 29.7581 18.9829 29.7581 19.0837V19.2649C29.7581 19.3455 29.7046 19.4158 29.6275 19.439C29.4435 19.4939 29.2872 19.586 29.1606 19.7144C28.9673 19.9106 28.8691 20.1665 28.8691 20.4745C28.8691 20.7679 28.9586 21.0129 29.1356 21.2025C29.3041 21.3829 29.5776 21.5308 29.9669 21.6532C30.2943 21.7666 30.4408 21.8664 30.506 21.9302C30.5849 22.0075 30.6231 22.1067 30.6231 22.2337C30.6231 22.375 30.5756 22.4812 30.4736 22.5679C30.3639 22.661 30.2217 22.7062 30.0384 22.7062C29.826 22.7062 29.669 22.6539 29.5584 22.5464C29.4492 22.4402 29.3962 22.2918 29.3962 22.0929C29.3962 21.9921 29.3146 21.9105 29.2138 21.9105H28.927C28.8262 21.9105 28.7446 21.9921 28.7446 22.0929C28.7446 22.4543 28.8503 22.7468 29.0589 22.9619C29.2038 23.1114 29.3894 23.215 29.613 23.272C29.6938 23.2926 29.7508 23.3648 29.7508 23.448V23.5889C29.7508 23.6896 29.8324 23.7712 29.9331 23.7712H30.1746C30.2753 23.7712 30.3569 23.6896 30.3569 23.5889V23.4393C30.3569 23.3578 30.4115 23.2865 30.49 23.2645C30.6822 23.2106 30.8444 23.1192 30.9749 22.9912C31.1737 22.7962 31.2745 22.5398 31.2745 22.2288C31.2747 22.0338 31.2358 21.8615 31.1589 21.7169Z" fill="#D1D3D4"/>
<path d="M31.1589 21.5109C31.0823 21.3665 30.9672 21.2409 30.8165 21.1375C30.6747 21.0402 30.4607 20.9437 30.1626 20.8427C29.8462 20.7351 29.7006 20.6392 29.6341 20.5773C29.556 20.5052 29.5181 20.402 29.5181 20.2626C29.5181 20.1161 29.5614 20.0041 29.6505 19.9204C29.7428 19.8337 29.8753 19.7915 30.055 19.7915C30.2263 19.7915 30.3555 19.8435 30.4499 19.9506C30.5505 20.0645 30.5992 20.2202 30.5992 20.4264C30.5992 20.5272 30.6808 20.6088 30.7816 20.6088H31.0661C31.1669 20.6088 31.2485 20.5272 31.2485 20.4264C31.2485 20.0671 31.1566 19.7748 30.9754 19.5576C30.8493 19.4066 30.6883 19.2993 30.4942 19.237C30.4185 19.2126 30.3665 19.1432 30.3665 19.0635V18.8777C30.3665 18.7769 30.2849 18.6953 30.1842 18.6953H29.9404C29.8396 18.6953 29.7581 18.7769 29.7581 18.8777V19.0588C29.7581 19.1395 29.7046 19.21 29.6275 19.233C29.4435 19.2878 29.2872 19.3799 29.1606 19.5084C28.9673 19.7045 28.8691 19.9605 28.8691 20.2684C28.8691 20.5619 28.9586 20.8068 29.1356 20.9964C29.3041 21.1769 29.5776 21.3248 29.9669 21.4471C30.2943 21.5605 30.4408 21.6604 30.506 21.7241C30.5849 21.8015 30.6231 21.9006 30.6231 22.0277C30.6231 22.169 30.5756 22.2752 30.4736 22.3619C30.3639 22.4549 30.2217 22.5002 30.0384 22.5002C29.826 22.5002 29.669 22.4479 29.5584 22.3403C29.4492 22.2341 29.3962 22.0858 29.3962 21.8868C29.3962 21.786 29.3146 21.7045 29.2138 21.7045H28.927C28.8262 21.7045 28.7446 21.7863 28.7446 21.8868C28.7446 22.2482 28.8503 22.5407 29.0589 22.7559C29.2038 22.9054 29.3894 23.009 29.613 23.0659C29.6938 23.0866 29.7508 23.1588 29.7508 23.242V23.3828C29.7508 23.4836 29.8324 23.5652 29.9331 23.5652H30.1746C30.2753 23.5652 30.3569 23.4836 30.3569 23.3828V23.2333C30.3569 23.1517 30.4115 23.0805 30.49 23.0584C30.6822 23.0045 30.8444 22.9131 30.9749 22.7852C31.1737 22.5902 31.2745 22.3338 31.2745 22.0227C31.2747 21.828 31.2358 21.6557 31.1589 21.5109Z" fill="white"/>
<path d="M35.9273 24.6747H24.1985C23.7134 24.6747 23.3203 24.2814 23.3203 23.7965V24.6747V33.5207C23.3203 33.9363 23.6571 34.2728 24.0724 34.2728H35.9273C36.3429 34.2728 36.6797 33.936 36.6797 33.5207V25.4268C36.6797 25.0115 36.3429 24.6747 35.9273 24.6747Z" fill="#EE5A9C"/>
<path d="M35.9273 24.6747H24.1985C23.7134 24.6747 23.3203 24.2814 23.3203 23.7965V24.1525C23.3203 24.6374 23.7136 25.0307 24.1985 25.0307H35.9273C36.3429 25.0307 36.6797 25.3675 36.6797 25.7831V25.4271C36.6797 25.0115 36.3429 24.6747 35.9273 24.6747Z" fill="#EF6EA8"/>
<path d="M35.9273 33.5608H24.0724C23.6569 33.5608 23.3203 33.224 23.3203 32.8087V33.5207C23.3203 33.9363 23.6571 34.2729 24.0724 34.2729H35.9273C36.3429 34.2729 36.6797 33.9361 36.6797 33.5207V32.8087C36.6797 33.224 36.3429 33.5608 35.9273 33.5608Z" fill="#E43C90"/>
<path d="M36.6797 31.3502H32.7239C32.2322 31.3502 31.8337 30.9517 31.8337 30.46V29.2656C31.8337 28.7739 32.2324 28.3755 32.7239 28.3755H36.6797V31.3502Z" fill="#E43C90"/>
<path d="M36.6797 30.9942H32.7239C32.2322 30.9942 31.8337 30.5958 31.8337 30.1041V28.9097C31.8337 28.418 32.2324 28.0195 32.7239 28.0195H36.6797V30.9942Z" fill="#F6CA14"/>
<path d="M32.7239 28.0193C32.2322 28.0193 31.8337 28.418 31.8337 28.9094V29.2655C31.8337 28.7737 32.2324 28.3753 32.7239 28.3753H36.6797V28.0193H32.7239Z" fill="#FFF235"/>
<path d="M31.8337 29.7478V30.1038C31.8337 30.5955 32.2324 30.994 32.7239 30.994H36.6797V30.638H32.7239C32.2322 30.638 31.8337 30.2395 31.8337 29.7478Z" fill="#E7AD27"/>
<path d="M33.4999 30.2956C33.8558 30.2956 34.1442 30.0071 34.1442 29.6513C34.1442 29.2954 33.8558 29.007 33.4999 29.007C33.1441 29.007 32.8557 29.2954 32.8557 29.6513C32.8557 30.0071 33.1441 30.2956 33.4999 30.2956Z" fill="#E7AD27"/>
<path d="M33.5001 30.1713C33.8559 30.1713 34.1444 29.8828 34.1444 29.527C34.1444 29.1712 33.8559 28.8827 33.5001 28.8827C33.1442 28.8827 32.8558 29.1712 32.8558 29.527C32.8558 29.8828 33.1442 30.1713 33.5001 30.1713Z" fill="white"/>
<path d="M33.4999 29.0449C33.8283 29.0449 34.099 29.2905 34.1388 29.6081C34.1421 29.5816 34.144 29.5544 34.144 29.527C34.144 29.1712 33.8555 28.8827 33.4997 28.8827C33.1439 28.8827 32.8554 29.1712 32.8554 29.527C32.8554 29.5544 32.8573 29.5814 32.8608 29.6081C32.9009 29.2905 33.1716 29.0449 33.4999 29.0449Z" fill="white"/>
<path d="M33.4999 30.0091C33.1716 30.0091 32.9009 29.7635 32.861 29.4459C32.8578 29.4724 32.8557 29.4996 32.8557 29.527C32.8557 29.8828 33.1442 30.1713 33.4999 30.1713C33.8557 30.1713 34.1442 29.8828 34.1442 29.527C34.1442 29.4996 34.1424 29.4726 34.1391 29.4459C34.099 29.7635 33.8283 30.0091 33.4999 30.0091Z" fill="#D0D2D3"/>
<path d="M36.3853 41.6208H23.6147C23.452 41.6208 23.3203 41.4888 23.3203 41.3264V37.331C23.3203 37.1683 23.452 37.0366 23.6147 37.0366H36.3853C36.548 37.0366 36.6797 37.1683 36.6797 37.331V41.3264C36.6797 41.489 36.548 41.6208 36.3853 41.6208Z" fill="#009ADD"/>
<path d="M27.3169 38.5451C27.195 38.3339 26.9248 38.2615 26.7136 38.3834L26.442 38.5402V38.2266C26.442 37.9826 26.2442 37.785 26.0004 37.785C25.7564 37.785 25.5588 37.9828 25.5588 38.2266V38.5404L25.2872 38.3836C25.076 38.2618 24.8058 38.3339 24.6839 38.5453C24.562 38.7565 24.6342 39.0268 24.8456 39.1486L25.1173 39.3054L24.8456 39.4622C24.6345 39.5841 24.562 39.8543 24.6839 40.0655C24.8058 40.2767 25.076 40.3491 25.2872 40.2272L25.5588 40.0704V40.3843C25.5588 40.6282 25.7567 40.8258 26.0004 40.8258C26.2444 40.8258 26.442 40.628 26.442 40.3843V40.0704L26.7136 40.2272C26.9248 40.3491 27.195 40.2769 27.3169 40.0655C27.4388 39.8543 27.3666 39.5841 27.1552 39.4622L26.8835 39.3054L27.1552 39.1486C27.3666 39.0265 27.439 38.7565 27.3169 38.5451Z" fill="white"/>
<path d="M35.0787 39.4622L34.8071 39.3054L35.0787 39.1486C35.2899 39.0268 35.3623 38.7565 35.2404 38.5453C35.1185 38.3342 34.8483 38.2618 34.6371 38.3836L34.3655 38.5404V38.2266C34.3655 37.9826 34.1677 37.785 33.9239 37.785C33.6802 37.785 33.4824 37.9828 33.4824 38.2266V38.5404L33.2107 38.3836C32.9996 38.2618 32.7293 38.3339 32.6074 38.5453C32.4856 38.7565 32.5578 39.0268 32.7692 39.1486L33.0408 39.3054L32.7692 39.4622C32.558 39.5841 32.4856 39.8543 32.6074 40.0655C32.7293 40.2767 32.9996 40.3491 33.2107 40.2272L33.4824 40.0704V40.3843C33.4824 40.6282 33.6802 40.8258 33.9239 40.8258C34.1677 40.8258 34.3655 40.628 34.3655 40.3843V40.0704L34.6371 40.2272C34.8483 40.3491 35.1185 40.2769 35.2404 40.0655C35.3625 39.8543 35.2901 39.5841 35.0787 39.4622Z" fill="white"/>
<path d="M31.2755 38.5451C31.1536 38.3339 30.8834 38.2615 30.6722 38.3834L30.4006 38.5402V38.2266C30.4006 37.9826 30.2028 37.785 29.959 37.785C29.715 37.785 29.5175 37.9828 29.5175 38.2266V38.5404L29.2458 38.3836C29.0346 38.2618 28.7644 38.3339 28.6425 38.5453C28.5207 38.7565 28.5929 39.0268 28.8043 39.1486L29.0759 39.3054L28.8043 39.4622C28.5931 39.5841 28.5207 39.8543 28.6425 40.0655C28.7644 40.2767 29.0346 40.3491 29.2458 40.2272L29.5175 40.0704V40.3843C29.5175 40.6282 29.7153 40.8258 29.959 40.8258C30.203 40.8258 30.4006 40.628 30.4006 40.3843V40.0704L30.6722 40.2272C30.8834 40.3491 31.1536 40.2769 31.2755 40.0655C31.3974 39.8543 31.3252 39.5841 31.1138 39.4622L30.8421 39.3054L31.1138 39.1486C31.325 39.0265 31.3974 38.7565 31.2755 38.5451Z" fill="white"/>
</svg>
