<svg width="41" height="40" viewBox="0 0 41 40" fill="none" xmlns="http://www.w3.org/2000/svg">
<path d="M6.56167 5.72338L21.1283 20.0084L6.67001 34.425C6.43406 34.1166 6.25049 33.7714 6.12667 33.4034C6.06166 32.9865 6.06166 32.562 6.12667 32.1451V7.61172C6.08334 6.95338 6.23501 6.29505 6.56001 5.72338M27.4033 13.7784L22.6483 18.4884L8.25501 4.33338C8.72167 4.17172 9.22167 4.12672 9.71001 4.20338C10.4767 4.41338 11.2083 4.73672 11.88 5.15838L24.9067 12.3667C25.7533 12.8217 26.5783 13.3 27.4033 13.7784ZM22.65 21.55L27.3817 26.1967L23.9517 28.1067L13.4867 33.9234C12.62 34.4017 11.75 34.8584 10.9033 35.38C10.5411 35.6058 10.1349 35.7516 9.71179 35.8076C9.28869 35.8637 8.8585 35.8287 8.45001 35.705L22.65 21.55ZM34.9167 20.0084C34.9298 20.5913 34.7829 21.1668 34.492 21.6721C34.2011 22.1775 33.7773 22.5935 33.2667 22.875L29.3567 25.045L24.2117 20.0084L29.3783 14.885C30.7033 15.6234 32.0067 16.3617 33.3083 17.0567C33.8277 17.3466 34.2543 17.7777 34.5387 18.3001C34.8231 18.8225 34.9552 19.4148 34.9167 20.0084Z" fill="white"/>
</svg>
