<svg width="68" height="60" viewBox="0 0 68 60" fill="none" xmlns="http://www.w3.org/2000/svg">
<path fill-rule="evenodd" clip-rule="evenodd" d="M53.7256 14.4992C49.9572 13.9296 44.1609 11.7862 42.4116 11.1188C42.0681 10.9878 41.7287 10.8449 41.3957 10.6884C39.4234 9.76258 37.6609 8.75804 36.1058 7.74758C34.5275 6.71575 33.154 5.67795 31.9889 4.71162C29.1026 2.30216 27.5248 0.3071 27.2732 0C27.0216 0.3071 25.4197 2.30209 22.5339 4.71162C21.3687 5.67795 19.9952 6.71575 18.4169 7.74758C16.8227 8.78356 15.0106 9.81314 12.9774 10.7585C12.7522 10.8631 12.5238 10.9605 12.2918 11.0497C10.8027 11.6225 4.70845 13.9082 0.797124 14.4992C0.300282 19.6589 1.63105 26.9388 1.63105 26.9388C6.27802 49.6169 26.4625 59.6287 27.261 60C27.2514 59.9954 27.2705 59.9954 27.261 60C28.0594 59.6287 48.2438 49.6168 52.8909 26.9388C52.8914 26.9387 54.298 19.3787 53.7256 14.4992Z" fill="#00A79D"/>
<path fill-rule="evenodd" clip-rule="evenodd" d="M49.3689 17.0521C46.2706 16.584 41.5312 14.8423 39.9893 14.2554C39.6531 14.1276 39.3219 13.9883 38.9966 13.8346C37.3783 13.0706 35.9297 12.2435 34.6499 11.4119C33.3315 10.5502 32.1841 9.68304 31.2109 8.87592C28.8001 6.86313 27.4716 5.18481 27.2614 4.92822C27.0512 5.18481 25.7237 6.86271 23.3123 8.87592C22.3392 9.68304 21.1912 10.5502 19.8733 11.4119C18.5689 12.2594 17.0894 13.1025 15.4333 13.8787C15.1767 13.9988 14.916 14.1094 14.6516 14.2108C13.2486 14.7477 8.33628 16.5712 5.15475 17.052C4.77984 21.4269 5.85176 27.4438 5.85176 27.4438C9.73396 46.3885 26.5954 54.7575 27.2624 55.0677C27.9294 54.7575 44.7907 46.3884 48.6729 27.4438C48.6719 27.4439 49.7419 21.3552 49.3689 17.0521Z" fill="#4AC0B3"/>
<path d="M53.7993 28.0469C61.2633 28.0469 67.314 21.9978 67.314 14.5359C67.314 7.07399 61.2633 1.0249 53.7993 1.0249C46.3354 1.0249 40.2847 7.07399 40.2847 14.5359C40.2847 21.9978 46.3354 28.0469 53.7993 28.0469Z" fill="#C7D3D8"/>
<path d="M53.7993 26.5147C60.4168 26.5147 65.7812 21.1517 65.7812 14.536C65.7812 7.92041 60.4168 2.55737 53.7993 2.55737C47.1819 2.55737 41.8174 7.92041 41.8174 14.536C41.8174 21.1517 47.1819 26.5147 53.7993 26.5147Z" fill="#EDEFF0"/>
<path fill-rule="evenodd" clip-rule="evenodd" d="M50.741 18.9534C50.5563 18.9534 50.3729 18.8787 50.2383 18.7327L47.6663 15.9356C47.4111 15.6581 47.4293 15.2263 47.7069 14.9716C47.9844 14.7163 48.4162 14.7345 48.6709 15.0121L50.7961 17.3233L58.9836 10.2836C59.2693 10.038 59.7002 10.0703 59.9459 10.3565C60.1915 10.6422 60.1592 11.073 59.8735 11.3187L51.1856 18.7883C51.0572 18.8988 50.8989 18.9534 50.741 18.9534Z" fill="#00A79D"/>
<path fill-rule="evenodd" clip-rule="evenodd" d="M37.8892 31.5863V28.6778L35.4242 28.4025C35.2295 27.3848 34.8455 26.4339 34.3114 25.5877L35.8934 23.6082L33.837 21.5518L31.8839 23.1127C31.0577 22.5681 30.1268 22.1696 29.1281 21.953L28.8411 19.3783L25.9324 19.3783L25.6454 21.9529C24.6795 22.1622 23.7773 22.5421 22.9715 23.0594L20.8632 21.3742L18.8068 23.4306L20.4924 25.5398C19.9933 26.3187 19.622 27.1877 19.4096 28.1167L16.6334 28.4265V31.3351L19.3777 31.6413C19.5706 32.5603 19.9178 33.4224 20.3909 34.1999L18.6293 36.4042L20.6857 38.4606L22.8281 36.7481C23.5947 37.2636 24.4537 37.6521 25.3746 37.885L25.6812 40.634L28.5898 40.6341L28.8842 37.9976C29.8546 37.8184 30.765 37.4676 31.5826 36.9781L33.6594 38.6377L35.7158 36.5813L34.1266 34.5932C34.6881 33.7797 35.1057 32.8597 35.3436 31.8693L37.8892 31.5863Z" fill="#556F7A"/>
<path d="M27.3869 35.0478C30.2016 35.0478 32.4834 32.766 32.4834 29.9513C32.4834 27.1366 30.2016 24.8549 27.3869 24.8549C24.5722 24.8549 22.2905 27.1366 22.2905 29.9513C22.2905 32.766 24.5722 35.0478 27.3869 35.0478Z" fill="#EDEFF0"/>
</svg>
