<svg width="40" height="40" viewBox="0 0 40 40" fill="none" xmlns="http://www.w3.org/2000/svg">
<g clip-path="url(#clip0_283_243)">
<path fill-rule="evenodd" clip-rule="evenodd" d="M20 0C31.0457 0 40 8.95432 40 20C40 31.0457 31.0457 40 20 40C8.95432 40 0 31.0457 0 20C0 8.95432 8.95432 0 20 0Z" fill="#90A4AE"/>
<mask id="mask0_283_243" style="mask-type:luminance" maskUnits="userSpaceOnUse" x="0" y="0" width="40" height="40">
<path d="M20 0C31.0457 0 40 8.95432 40 20C40 31.0457 31.0457 40 20 40C8.95432 40 0 31.0457 0 20C0 8.95432 8.95432 0 20 0Z" fill="white"/>
</mask>
<g mask="url(#mask0_283_243)">
<path fill-rule="evenodd" clip-rule="evenodd" d="M30.8447 11.2754L53.0299 33.4605V34.3722L30.8447 12.187V11.2754Z" fill="#78909C"/>
<path fill-rule="evenodd" clip-rule="evenodd" d="M30.8448 12.187L53.0299 34.3723H51.661L29.4758 12.187H30.8448Z" fill="#78909C"/>
<path fill-rule="evenodd" clip-rule="evenodd" d="M29.4757 12.187L51.6609 34.3723L50.6695 38.7418L28.4841 16.5567L29.4757 12.187Z" fill="#78909C"/>
<path fill-rule="evenodd" clip-rule="evenodd" d="M30.9375 16.5566L53.1226 38.7418L53.0208 39.2812L30.8357 17.0961L30.9375 16.5566Z" fill="#78909C"/>
<path fill-rule="evenodd" clip-rule="evenodd" d="M16.6399 15.0297L38.825 37.2149L38.8594 37.2514L38.8898 37.291L38.9164 37.3334L38.9389 37.3784L38.957 37.4252L38.9705 37.4739L38.9793 37.5241L38.9832 37.5756L38.9818 37.628L38.975 37.6809L16.7898 15.4956L16.7966 15.4427L16.798 15.3904L16.7941 15.3389L16.7853 15.2887L16.7717 15.24L16.7536 15.1931L16.7312 15.1483L16.7046 15.1059L16.6741 15.0663L16.6399 15.0297Z" fill="#78909C"/>
<path fill-rule="evenodd" clip-rule="evenodd" d="M15.1006 15.0475L37.2857 37.2326L37.3181 37.2709L37.3467 37.3119L37.3713 37.3557L37.3916 37.4016L37.4076 37.4496L37.4187 37.4994L37.425 37.5508L37.4262 37.6031L37.4219 37.6563L15.2367 15.4711L15.241 15.4179L15.2398 15.3655L15.2336 15.3143L15.2223 15.2645L15.2065 15.2164L15.1861 15.1704L15.1616 15.1267L15.133 15.0856L15.1006 15.0475Z" fill="#78909C"/>
<path fill-rule="evenodd" clip-rule="evenodd" d="M12.748 15.0226L34.9332 37.2078L34.9681 37.2437L34.9998 37.283L35.0273 37.3254L35.0509 37.3707L35.0701 37.4185L35.0847 37.4687L35.0943 37.5213L12.909 15.3361L12.8995 15.2836L12.8849 15.2333L12.8657 15.1854L12.8421 15.1401L12.8145 15.0978L12.783 15.0585L12.748 15.0226Z" fill="#78909C"/>
<path fill-rule="evenodd" clip-rule="evenodd" d="M11.7271 17.4122L33.9122 39.5975L34.0095 39.9631L11.8242 17.7779L11.7271 17.4122Z" fill="#78909C"/>
<path fill-rule="evenodd" clip-rule="evenodd" d="M12.9092 15.3362L35.0944 37.5213L35.6038 41.4293L13.4186 19.244L12.9092 15.3362Z" fill="#78909C"/>
<path fill-rule="evenodd" clip-rule="evenodd" d="M15.2367 15.4711L37.4218 37.6562L36.9306 41.4254L14.7454 19.2402L15.2367 15.4711Z" fill="#78909C"/>
<path fill-rule="evenodd" clip-rule="evenodd" d="M16.7898 15.4956L38.975 37.6809L38.6307 39.5975L16.4456 17.4122L16.7898 15.4956Z" fill="#78909C"/>
<path fill-rule="evenodd" clip-rule="evenodd" d="M18.1688 15.5574L40.3539 37.7425L40.0199 39.5974L17.8347 17.4121L18.1688 15.5574Z" fill="#78909C"/>
<path fill-rule="evenodd" clip-rule="evenodd" d="M11.8242 17.7778L34.0095 39.963L34.0171 39.9912L34.0253 40.0189L34.0339 40.0466L34.0428 40.0744L34.0524 40.1017L34.0624 40.129L34.0727 40.156L34.0837 40.183L34.095 40.2097L34.1067 40.2363L34.1188 40.2628L34.1313 40.289L34.1444 40.315L34.1577 40.3408L34.1716 40.3665L34.1858 40.3919L34.2005 40.4173L34.2155 40.4423L34.2309 40.4671L34.2468 40.4917L34.263 40.5163L34.2796 40.5406L34.2966 40.5646L34.3139 40.5882L34.3315 40.6119L34.3497 40.6353L34.3682 40.6583L34.387 40.6812L34.4063 40.7038L34.4259 40.7263L34.4458 40.7484L34.4661 40.7704L12.2808 18.5852L12.2605 18.5632L12.2406 18.5411L12.2211 18.5187L12.2019 18.496L12.183 18.4731L12.1646 18.45L12.1464 18.4267L12.1287 18.4031L12.1113 18.3793L12.0943 18.3553L12.0777 18.3311L12.0615 18.3066L12.0457 18.282L12.0303 18.2571L12.0152 18.2321L12.0006 18.2068L11.9864 18.1813L11.9726 18.1556L11.9592 18.1298L11.9462 18.1038L11.9336 18.0775L11.9215 18.0511L11.9098 18.0245L11.8985 17.9978L11.8877 17.9709L11.8772 17.9438L11.8673 17.9165L11.8578 17.8891L11.8487 17.8615L11.8401 17.8337L11.8319 17.8059L11.8242 17.7778Z" fill="#78909C"/>
<path fill-rule="evenodd" clip-rule="evenodd" d="M18.0188 15.0914L40.204 37.2765L40.2382 37.3133L40.2687 37.3529L40.2952 37.3953L40.3177 37.44L40.3358 37.4869L40.3493 37.5357L40.3581 37.5859L40.362 37.6373L40.3607 37.6896L40.3538 37.7426L18.1687 15.5574L18.1755 15.5045L18.1768 15.4522L18.173 15.4007L18.1642 15.3505L18.1506 15.3018L18.1325 15.2549L18.11 15.2101L18.0835 15.1677L18.053 15.1281L18.0188 15.0914Z" fill="#78909C"/>
<path fill-rule="evenodd" clip-rule="evenodd" d="M19.5172 18.2319L41.7024 40.4171L41.7022 40.4257L41.702 40.4349L41.7016 40.4445L41.701 40.4544L41.7002 40.4652L41.6993 40.4761L41.6983 40.4876L41.6969 40.4997L19.5117 18.3146L19.513 18.3025L19.5141 18.291L19.515 18.2799L19.5158 18.2693L19.5164 18.2592L19.5169 18.2496L19.5171 18.2405L19.5172 18.2319Z" fill="#78909C"/>
<path fill-rule="evenodd" clip-rule="evenodd" d="M19.2771 17.6782L41.4623 39.8635L41.491 39.8932L41.5184 39.924L41.544 39.9561L41.568 39.9893L41.5902 40.0234L41.6108 40.0588L41.6293 40.0951L41.6459 40.1324L41.6604 40.1707L41.6731 40.2098L41.6834 40.2496L41.6916 40.2904L41.6975 40.332L41.7012 40.3742L41.7024 40.4172L19.5172 18.232L19.5159 18.189L19.5123 18.1468L19.5064 18.1052L19.4982 18.0645L19.4878 18.0245L19.4753 17.9854L19.4607 17.9472L19.444 17.9099L19.4255 17.8736L19.4051 17.8383L19.3828 17.804L19.3589 17.7709L19.3332 17.7388L19.3059 17.7079L19.2771 17.6782Z" fill="#78909C"/>
<path fill-rule="evenodd" clip-rule="evenodd" d="M19.5118 18.3146L41.697 40.4997L40.6208 50.1146L18.4355 27.9292L19.5118 18.3146Z" fill="#78909C"/>
<path fill-rule="evenodd" clip-rule="evenodd" d="M30.8356 17.0961L53.0208 39.2812L51.044 49.764L28.8589 27.5789L30.8356 17.0961Z" fill="#78909C"/>
<path fill-rule="evenodd" clip-rule="evenodd" d="M28.8589 27.5789L51.044 49.764L50.9737 50.1361L28.7886 27.9509L28.8589 27.5789Z" fill="#78909C"/>
<path fill-rule="evenodd" clip-rule="evenodd" d="M23.5091 27.9509L45.6942 50.1361H45.3175L23.1323 27.9509H23.5091Z" fill="#78909C"/>
<path fill-rule="evenodd" clip-rule="evenodd" d="M18.4355 27.9293L40.6208 50.1147L40.6152 50.1561L40.6077 50.1969L40.5984 50.2373L40.5872 50.2772L40.5745 50.3162L40.5599 50.3545L40.5437 50.392L40.5259 50.4287L40.5064 50.4645L40.4853 50.4992L40.4626 50.5332L40.4384 50.5658L40.4128 50.5975L40.3857 50.628L40.3571 50.6571L40.3273 50.685L18.1421 28.4996L18.172 28.4719L18.2005 28.4426L18.2276 28.4123L18.2533 28.3807L18.2774 28.3479L18.3001 28.3141L18.3212 28.2793L18.3407 28.2436L18.3586 28.2069L18.3748 28.1694L18.3893 28.1309L18.4021 28.0918L18.4132 28.0522L18.4225 28.0117L18.4299 27.9709L18.4355 27.9293Z" fill="#78909C"/>
<path fill-rule="evenodd" clip-rule="evenodd" d="M18.1421 28.4996L40.3272 50.685L40.2974 50.7104L40.2663 50.7344L40.2343 50.7572L40.2011 50.7787L40.1669 50.7987L40.1317 50.817L40.0956 50.834L40.0585 50.8494L40.0204 50.8631L39.9815 50.8752L39.9417 50.8856L39.9011 50.8942L39.8597 50.901L39.8175 50.9059L39.7745 50.9088L39.7308 50.9098L17.5457 28.7246L17.5893 28.7237L17.6322 28.7207L17.6744 28.7158L17.7158 28.709L17.7565 28.7004L17.7963 28.6901L17.8352 28.678L17.8733 28.6643L17.9104 28.6489L17.9466 28.6319L17.9818 28.6135L18.0159 28.5934L18.0491 28.5721L18.0812 28.5492L18.1122 28.525L18.1421 28.4996Z" fill="#78909C"/>
<path fill-rule="evenodd" clip-rule="evenodd" d="M17.5457 28.7246L39.7308 50.9098H33.2194L11.0342 28.7246H17.5457Z" fill="#78909C"/>
<path fill-rule="evenodd" clip-rule="evenodd" d="M11.0341 28.7246L33.2193 50.9098L33.1756 50.9088L33.1326 50.9059L33.0904 50.901L33.049 50.8942L33.0084 50.8856L32.9686 50.8752L32.9297 50.8631L32.8916 50.8494L32.8545 50.834L32.8184 50.817L32.7832 50.7987L32.749 50.7787L32.7158 50.7573L32.6836 50.7344L32.6527 50.7104L10.4675 28.525L10.4985 28.5492L10.5306 28.5721L10.5638 28.5934L10.598 28.6135L10.6332 28.6319L10.6693 28.6489L10.7065 28.6643L10.7445 28.678L10.7834 28.6901L10.8232 28.7004L10.8639 28.709L10.9053 28.7158L10.9475 28.7207L10.9904 28.7237L11.0341 28.7246Z" fill="#78909C"/>
<path fill-rule="evenodd" clip-rule="evenodd" d="M28.4122 27.9509L50.5974 50.1361H45.6944L23.5093 27.9509H28.4122Z" fill="#78909C"/>
<path fill-rule="evenodd" clip-rule="evenodd" d="M28.7887 27.9509L50.9738 50.1361H50.5973L28.4121 27.9509H28.7887Z" fill="#78909C"/>
<path fill-rule="evenodd" clip-rule="evenodd" d="M30.8447 11.2754V12.187H29.4757L28.4843 16.5566H30.3889H30.9375L30.8358 17.0961L28.8589 27.5789L28.7887 27.951H28.412H23.5091H23.1324L23.0623 27.5789L21.0854 17.0961L20.9836 16.5566H21.5322H27.5524L28.6699 11.6315L28.7507 11.2754H29.1132H30.8447ZM12.3245 14.8864C12.6101 14.8492 12.8719 15.0505 12.9091 15.3361L13.4185 19.244C13.5056 19.2663 13.595 19.2842 13.6861 19.2976L14.2025 15.3361C14.2397 15.0505 14.5015 14.8492 14.7871 14.8864C15.0727 14.9237 15.274 15.1854 15.2368 15.471L14.7455 19.2402C14.8605 19.21 14.9717 19.1723 15.0783 19.1276L15.7637 15.3116C15.8145 15.0282 16.0855 14.8397 16.3688 14.8905C16.6521 14.9413 16.8406 15.2122 16.7898 15.4955L16.4456 17.4122H16.7755L17.1427 15.3734C17.1935 15.0901 17.4644 14.9015 17.7478 14.9523C18.0311 15.0031 18.2196 15.2741 18.1688 15.5574L17.8347 17.4122H18.6218C18.652 17.4122 18.687 17.4145 18.7266 17.4189C18.9224 17.4408 19.108 17.5253 19.2468 17.6497C19.4123 17.7981 19.5172 18.001 19.5172 18.2319C19.5172 18.2542 19.5153 18.2818 19.5117 18.3146L18.4354 27.9293C18.4105 28.1516 18.3051 28.3546 18.142 28.4996C17.9857 28.6385 17.7802 28.7245 17.5456 28.7245H11.0341C10.7994 28.7245 10.5939 28.6385 10.4377 28.4996C10.2745 28.3546 10.1691 28.1516 10.1442 27.9293L9.06797 18.3146C9.06432 18.2818 9.0625 18.2542 9.0625 18.2319C9.0625 18.001 9.16735 17.7981 9.33286 17.6497C9.47166 17.5253 9.65725 17.4408 9.85308 17.4189C9.89257 17.4145 9.92768 17.4122 9.95779 17.4122H11.3513H11.727L11.8241 17.7778C11.9038 18.0777 12.0627 18.3527 12.2808 18.5852L11.8748 15.471C11.8376 15.1854 12.0389 14.9237 12.3245 14.8864V14.8864Z" fill="#78909C"/>
</g>
<path d="M27.5151 16.7201L28.6698 11.6315L28.7505 11.2754H29.1132H30.8446V12.187H29.4757L28.4472 16.7201H27.5151Z" fill="#1565C0"/>
<path d="M21.5323 16.5566H30.3889H30.9375L30.8358 17.0961L28.859 27.5789L28.7887 27.951H28.4122H23.5092H23.1325L23.0624 27.5789L21.0854 17.0961L20.9836 16.5566H21.5323Z" fill="#ECEFF1"/>
<path d="M12.9091 15.3362C12.8718 15.0506 12.6101 14.8493 12.3245 14.8865C12.0389 14.9238 11.8375 15.1855 11.8748 15.4711L12.3163 18.8584C12.4261 18.9943 12.5569 19.1142 12.7003 19.2149C12.9294 19.3758 13.1879 19.487 13.4584 19.5502L12.9091 15.3362Z" fill="#FFD54F"/>
<path d="M15.2367 15.4711C15.274 15.1855 15.0726 14.9238 14.787 14.8865C14.5015 14.8493 14.2397 15.0506 14.2024 15.3362L13.6484 19.5865C13.7682 19.6044 13.8895 19.6132 14.0108 19.6132C14.2478 19.6132 14.4844 19.5794 14.7101 19.5108L15.2367 15.4711Z" fill="#FFD54F"/>
<path d="M16.7897 15.4956C16.8405 15.2123 16.652 14.9414 16.3687 14.8906C16.0854 14.8398 15.8144 15.0283 15.7636 15.3116L15.032 19.3849C15.1324 19.3362 15.2293 19.2796 15.3214 19.2149C15.6415 18.99 15.8986 18.6701 16.0001 18.2881L16.2173 17.4709H16.4349L16.7897 15.4956Z" fill="#FFD54F"/>
<path d="M18.1688 15.5574C18.2196 15.2741 18.031 15.0032 17.7477 14.9524C17.4644 14.9016 17.1935 15.0901 17.1427 15.3734L16.7649 17.4708H17.8241L18.1688 15.5574Z" fill="#FFD54F"/>
<path fill-rule="evenodd" clip-rule="evenodd" d="M9.95779 17.4122H11.3513H11.727L11.8241 17.7779C11.9409 18.2175 12.228 18.6038 12.6223 18.8808C13.0187 19.1593 13.523 19.3256 14.0746 19.3256C14.6261 19.3256 15.1303 19.1593 15.5268 18.8808C15.9211 18.6038 16.2081 18.2175 16.325 17.7779L16.4221 17.4122H16.7978H18.6218C18.652 17.4122 18.687 17.4145 18.7266 17.4189C18.9224 17.4409 19.108 17.5254 19.2468 17.6498C19.4123 17.7982 19.5172 18.0011 19.5172 18.232C19.5172 18.2543 19.5153 18.2819 19.5117 18.3147L18.4354 27.9294C18.4105 28.1517 18.3051 28.3547 18.142 28.4997C17.9857 28.6386 17.7802 28.7246 17.5456 28.7246H11.0341C10.7994 28.7246 10.5939 28.6386 10.4377 28.4997C10.2745 28.3547 10.1691 28.1517 10.1442 27.9294L9.06797 18.3147C9.06432 18.2819 9.0625 18.2543 9.0625 18.232C9.0625 18.0011 9.16735 17.7982 9.33286 17.6498C9.47166 17.5254 9.65725 17.4409 9.85308 17.4189C9.89257 17.4145 9.92768 17.4122 9.95779 17.4122Z" fill="#D32F2F"/>
<path fill-rule="evenodd" clip-rule="evenodd" d="M14.2898 22.3474C14.786 22.3474 15.2354 22.5486 15.5605 22.8738C15.8858 23.199 16.087 23.6483 16.087 24.1446C16.087 24.6408 15.8858 25.0901 15.5605 25.4153C15.2353 25.7405 14.786 25.9417 14.2898 25.9417C13.7936 25.9417 13.3443 25.7405 13.0191 25.4153C12.6939 25.0901 12.4927 24.6408 12.4927 24.1446C12.4927 23.6483 12.6938 23.199 13.0191 22.8738C13.3443 22.5486 13.7936 22.3474 14.2898 22.3474Z" fill="#B71C1C"/>
</g>
<defs>
<clipPath id="clip0_283_243">
<rect width="40" height="40" fill="white"/>
</clipPath>
</defs>
</svg>
