<svg width="43" height="48" viewBox="0 0 43 48" fill="none" xmlns="http://www.w3.org/2000/svg">
<g filter="url(#filter0_d_283_232)">
<path d="M31.419 9.4737C31.419 14.3571 27.4098 18.3158 22.4643 18.3158C17.5187 18.3158 13.5095 14.3571 13.5095 9.4737C13.5095 4.59034 17.5187 0.631592 22.4643 0.631592C27.4098 0.631592 31.419 4.59034 31.419 9.4737Z" fill="#FED76E"/>
<path d="M28.8603 9.47362C28.8603 12.9617 25.9966 15.7894 22.4641 15.7894C18.9316 15.7894 16.0679 12.9617 16.0679 9.47362C16.0679 5.98557 18.9316 3.15784 22.4641 3.15784C25.9966 3.15784 28.8603 5.98557 28.8603 9.47362Z" fill="#FEAF50"/>
<path d="M13.083 37.6843C13.083 38.6144 13.8466 39.3685 14.7887 39.3685H17.3472C18.2892 39.3685 19.0529 38.6145 19.0529 37.6843V35.1579L13.083 34.3832V37.6843ZM25.8756 35.1579V37.6843C25.8756 38.6144 26.6391 39.3685 27.5812 39.3685H30.1397C31.0817 39.3685 31.8454 38.6145 31.8454 37.6843V34.3833L25.8756 35.1579Z" fill="#FE9D5E"/>
<path d="M35.6837 19.1579C37.022 20.9172 37.8153 23.1039 37.8153 25.4737C37.8153 31.2873 33.0425 36 27.1548 36H17.7737C11.8861 36 7.11328 31.2873 7.11328 25.4737C7.11328 23.1039 7.90662 20.9172 9.24494 19.1579H8.16582C6.95022 19.1579 6.34139 17.7067 7.20095 16.8578L11.5822 12.5316C12.1152 12.0054 12.9791 12.0054 13.512 12.5316L16.0911 15.0783C16.6393 14.9925 17.2012 14.9474 17.7738 14.9474H27.1549C27.7275 14.9474 28.2893 14.9925 28.8376 15.0783L31.4166 12.5316C31.9495 12.0054 32.8135 12.0054 33.3464 12.5316L37.7277 16.8578C38.5872 17.7065 37.9785 19.1579 36.7628 19.1579H35.6837Z" fill="#FE7D49"/>
<path d="M37.1029 21.6843C35.5621 25.6252 31.6894 28.4211 27.1548 28.4211H17.7737C13.2391 28.4211 9.36647 25.6253 7.82568 21.6843C9.36639 17.7433 13.2391 14.9474 17.7737 14.9474H27.1548C31.6894 14.9474 35.5621 17.7432 37.1029 21.6843Z" fill="#FE9D5E"/>
<path d="M26.7285 28.8421C26.7285 30.4699 25.3921 31.7895 23.7436 31.7895H21.1851C19.5365 31.7895 18.2002 30.4699 18.2002 28.8421C18.2002 27.2143 19.5366 25.8948 21.1851 25.8948H23.7436C25.3921 25.8948 26.7285 27.2143 26.7285 28.8421Z" fill="#FEDEB1"/>
<path d="M13.1283 9.47367C13.1283 4.24984 17.416 0 22.6865 0C27.9569 0 32.2446 4.24984 32.2446 9.47367C32.2446 9.8225 31.9583 10.1052 31.605 10.1052C31.2516 10.1052 30.9654 9.82242 30.9654 9.47367C30.9654 4.94633 27.2515 1.26312 22.6865 1.26312C18.1214 1.26312 14.4075 4.94633 14.4075 9.47367C14.4075 9.8225 14.1212 10.1052 13.7679 10.1052C13.4145 10.1052 13.1283 9.8225 13.1283 9.47367ZM28.0241 12.9798C28.3369 13.1423 28.7235 13.0238 28.8881 12.7152C29.4169 11.7234 29.6964 10.6025 29.6964 9.47367C29.6964 5.64281 26.5518 2.52633 22.6865 2.52633C18.8211 2.52633 15.6764 5.64289 15.6764 9.47367C15.6764 10.6023 15.9559 11.7232 16.4848 12.7152C16.5994 12.9301 16.8214 13.0527 17.0515 13.0527C17.1519 13.0527 17.2538 13.0293 17.3488 12.9799C17.6615 12.8175 17.7814 12.4355 17.6169 12.1269C17.1845 11.3156 16.9558 10.3981 16.9558 9.47375C16.9558 6.33945 19.5267 3.78953 22.6866 3.78953C25.8465 3.78953 28.4172 6.33945 28.4172 9.47375C28.4172 10.3983 28.1886 11.3158 27.7561 12.1268C27.5915 12.4354 27.7115 12.8173 28.0241 12.9798ZM24.5949 11.1579C24.5949 10.5774 24.1198 10.1052 23.5358 10.1052H23.3261V11.1859C23.3261 11.5348 23.0398 11.8175 22.6865 11.8175C22.3331 11.8175 22.0469 11.5347 22.0469 11.1859V10.1052H21.837C20.5476 10.1052 19.4986 9.06641 19.4986 7.78945C19.4986 6.5125 20.5476 5.47367 21.837 5.47367H22.0469V5.26312C22.0469 4.9143 22.3331 4.63156 22.6865 4.63156C23.0398 4.63156 23.3261 4.91437 23.3261 5.26312V5.47367H24.3852C24.7385 5.47367 25.0248 5.75648 25.0248 6.10523C25.0248 6.45398 24.7385 6.7368 24.3852 6.7368H23.3261V8.84203H23.5358C24.8253 8.84203 25.8742 9.88086 25.8742 11.1578C25.8742 12.4348 24.8253 13.4736 23.5358 13.4736H20.9877C20.6343 13.4736 20.3481 13.1908 20.3481 12.842C20.3481 12.4932 20.6343 12.2105 20.9877 12.2105H23.5358C24.1198 12.2105 24.5949 11.7384 24.5949 11.1579ZM22.0469 8.84211V6.73688H21.837C21.2531 6.73688 20.7779 7.20906 20.7779 7.78953C20.7779 8.37 21.2531 8.84219 21.837 8.84219L22.0469 8.84211ZM37.0412 19.7845C38.0403 21.4459 38.615 23.3841 38.615 25.4524V25.495C38.615 29.7321 36.2058 33.4238 32.6692 35.3057V37.6842C32.6692 38.9612 31.6203 40 30.3308 40H27.7827C26.4933 40 25.4443 38.9612 25.4443 37.6842V36.6316H19.9284V37.6842C19.9284 38.9612 18.8794 40 17.59 40H15.0419C13.7525 40 12.7035 38.9612 12.7035 37.6842V35.3057C11.8698 34.8621 11.0988 34.3177 10.4073 33.6895C9.97945 34.8867 8.82564 35.747 7.47237 35.747C5.75593 35.747 4.35962 34.3637 4.35962 32.6634C4.35962 31.8521 4.67515 31.086 5.24814 30.5063C5.49468 30.2566 5.89969 30.2518 6.15256 30.4955C6.40543 30.7391 6.41026 31.139 6.16356 31.3886C5.82524 31.7309 5.63891 32.1837 5.63891 32.6634C5.63891 33.6673 6.46145 34.4838 7.47245 34.4838C8.48344 34.4838 9.30606 33.6673 9.30606 32.6634C9.30606 32.6248 9.31009 32.5873 9.31682 32.5507C7.71859 30.6284 6.75791 28.1705 6.75791 25.4952V25.4526C6.75791 23.3849 7.33225 21.4476 8.33043 19.7866C7.54571 19.755 6.87667 19.2964 6.5719 18.5717C6.25463 17.8176 6.41975 16.9902 7.00279 16.4122L11.3662 12.086C11.7438 11.7117 12.246 11.5055 12.7803 11.5055C13.3147 11.5055 13.8169 11.7116 14.1946 12.0859L16.5424 14.4137C17.0314 14.3495 17.53 14.3158 18.0364 14.3158H27.3365C27.8253 14.3158 28.307 14.3468 28.7797 14.4066L31.1204 12.0859C31.4981 11.7116 32.0003 11.5054 32.5346 11.5054C32.5346 11.5054 32.5346 11.5054 32.5347 11.5054C33.069 11.5054 33.5712 11.7116 33.9488 12.0859L38.3123 16.4121C38.8952 16.99 39.0603 17.8174 38.7431 18.5715C38.4456 19.2788 37.8014 19.7336 37.0412 19.7845ZM9.21111 18.5263C10.6786 16.707 12.7095 15.3502 15.041 14.7152L13.2882 12.9773C13.1524 12.8428 12.9721 12.7686 12.7804 12.7686C12.5888 12.7686 12.4084 12.8427 12.2727 12.9773L7.90919 17.3035C7.59128 17.6186 7.70957 17.9828 7.7534 18.087C7.79676 18.1901 7.97264 18.5263 8.4169 18.5263H9.21111ZM18.6492 36.6316H18.0363C16.6081 36.6316 15.2413 36.3675 13.9828 35.8871V37.6841C13.9828 38.2646 14.4579 38.7368 15.0419 38.7368H17.59C18.174 38.7368 18.6491 38.2646 18.6491 37.6841L18.6492 36.6316ZM31.39 35.8872C30.1314 36.3675 28.7646 36.6316 27.3365 36.6316H26.7236V37.6843C26.7236 38.2648 27.1987 38.737 27.7827 38.737H30.3308C30.9148 38.737 31.3899 38.2648 31.3899 37.6843L31.39 35.8872ZM37.3357 25.4523C37.3357 20.0081 32.8501 15.5789 27.3365 15.5789H18.0364C12.5228 15.5789 8.03721 20.0081 8.03721 25.4523V25.4949C8.03721 30.9391 12.5228 35.3684 18.0364 35.3684H27.3365C32.8501 35.3684 37.3357 30.9391 37.3357 25.4949V25.4523ZM37.4059 17.3035L33.0423 12.9773C32.9065 12.8427 32.7262 12.7685 32.5346 12.7685C32.3429 12.7685 32.1625 12.8427 32.0267 12.9773L30.2862 14.7029C32.6367 15.3324 34.6847 16.6951 36.1617 18.5263H36.8981C37.3424 18.5263 37.5183 18.19 37.5616 18.087C37.6055 17.9828 37.7237 17.6186 37.4059 17.3035ZM27.573 28.8361V28.848C27.573 30.8182 25.9497 32.421 23.9545 32.421H21.4184C19.4232 32.421 17.7999 30.8181 17.7999 28.848V28.8361C17.7999 26.8659 19.4232 25.2631 21.4184 25.2631H23.9545C25.9497 25.2631 27.573 26.866 27.573 28.8361ZM26.2938 28.8361C26.2938 27.5624 25.2444 26.5263 23.9545 26.5263H21.4184C20.1286 26.5263 19.0791 27.5624 19.0791 28.8361V28.848C19.0791 30.1217 20.1286 31.1579 21.4184 31.1579H23.9545C25.2444 31.1579 26.2938 30.1217 26.2938 28.848V28.8361ZM21.6459 28.2105H21.5611C21.2077 28.2105 20.9215 28.4934 20.9215 28.8421C20.9215 29.1909 21.2077 29.4737 21.5611 29.4737H21.6459C21.9992 29.4737 22.2855 29.1909 22.2855 28.8421C22.2855 28.4934 21.9992 28.2105 21.6459 28.2105ZM23.8119 28.2105H23.7269C23.3736 28.2105 23.0873 28.4934 23.0873 28.8421C23.0873 29.1909 23.3736 29.4737 23.7269 29.4737H23.8119C24.1652 29.4737 24.4515 29.1909 24.4515 28.8421C24.4515 28.4934 24.1652 28.2105 23.8119 28.2105ZM20.1382 21.4737H20.2232C20.5766 21.4737 20.8628 21.1909 20.8628 20.8421C20.8628 20.4934 20.5766 20.2105 20.2232 20.2105H20.1382C19.7849 20.2105 19.4986 20.4934 19.4986 20.8421C19.4986 21.1909 19.7851 21.4737 20.1382 21.4737ZM25.1497 21.4737H25.2346C25.588 21.4737 25.8742 21.1909 25.8742 20.8421C25.8742 20.4934 25.588 20.2105 25.2346 20.2105H25.1497C24.7964 20.2105 24.5101 20.4934 24.5101 20.8421C24.5101 21.1909 24.7964 21.4737 25.1497 21.4737Z" fill="black"/>
</g>
<defs>
<filter id="filter0_d_283_232" x="-2.62402" y="0" width="48.5095" height="48" filterUnits="userSpaceOnUse" color-interpolation-filters="sRGB">
<feFlood flood-opacity="0" result="BackgroundImageFix"/>
<feColorMatrix in="SourceAlpha" type="matrix" values="0 0 0 0 0 0 0 0 0 0 0 0 0 0 0 0 0 0 127 0" result="hardAlpha"/>
<feOffset dy="4"/>
<feGaussianBlur stdDeviation="2"/>
<feComposite in2="hardAlpha" operator="out"/>
<feColorMatrix type="matrix" values="0 0 0 0 0 0 0 0 0 0 0 0 0 0 0 0 0 0 0.25 0"/>
<feBlend mode="normal" in2="BackgroundImageFix" result="effect1_dropShadow_283_232"/>
<feBlend mode="normal" in="SourceGraphic" in2="effect1_dropShadow_283_232" result="shape"/>
</filter>
</defs>
</svg>
