<svg width="32" height="32" viewBox="0 0 32 32" fill="none" xmlns="http://www.w3.org/2000/svg">
<path d="M28.5806 3.4426C27.9136 2.75809 26.9266 2.50308 26.0062 2.77151L4.54402 9.01265C3.57295 9.28244 2.88467 10.0569 2.69926 11.0407C2.50985 12.042 3.17146 13.313 4.03581 13.8445L10.7466 17.969C11.4348 18.3918 12.3232 18.2858 12.8928 17.7113L20.5772 9.97903C20.964 9.57637 21.6043 9.57637 21.9912 9.97903C22.378 10.3683 22.378 10.9991 21.9912 11.4017L14.2934 19.1354C13.7224 19.7085 13.6158 20.601 14.0359 21.2936L18.1363 28.0717C18.6164 28.8769 19.4435 29.3333 20.3504 29.3333C20.4572 29.3333 20.5772 29.3333 20.684 29.3198C21.7244 29.1857 22.5514 28.4744 22.8582 27.4677L29.2208 6.03301C29.501 5.12033 29.2475 4.12712 28.5806 3.4426Z" fill="white"/>
</svg>
