<svg width="24" height="25" viewBox="0 0 24 25" fill="none" xmlns="http://www.w3.org/2000/svg">
<path d="M19.5002 12.5C19.5002 12.27 19.4902 12.05 19.4702 11.82L21.3302 10.41C21.7302 10.11 21.8402 9.55 21.5902 9.11L19.7202 5.88C19.6002 5.66818 19.4063 5.50814 19.1756 5.43062C18.9449 5.3531 18.6936 5.36356 18.4702 5.46L16.3202 6.37C15.9502 6.11 15.5602 5.88 15.1502 5.69L14.8602 3.38C14.8002 2.88 14.3702 2.5 13.8702 2.5H10.1402C9.63015 2.5 9.20015 2.88 9.14015 3.38L8.85015 5.69C8.44015 5.88 8.05015 6.11 7.68015 6.37L5.53015 5.46C5.07015 5.26 4.53015 5.44 4.28015 5.88L2.41015 9.12C2.16015 9.56 2.27015 10.11 2.67015 10.42L4.53015 11.83C4.4887 12.279 4.4887 12.731 4.53015 13.18L2.67015 14.59C2.27015 14.89 2.16015 15.45 2.41015 15.89L4.28015 19.12C4.53015 19.56 5.07015 19.74 5.53015 19.54L7.68015 18.63C8.05015 18.89 8.44015 19.12 8.85015 19.31L9.14015 21.62C9.20015 22.12 9.63015 22.5 10.1302 22.5H13.8602C14.3602 22.5 14.7902 22.12 14.8502 21.62L15.1402 19.31C15.5502 19.12 15.9402 18.89 16.3102 18.63L18.4602 19.54C18.9202 19.74 19.4602 19.56 19.7102 19.12L21.5802 15.89C21.8302 15.45 21.7202 14.9 21.3202 14.59L19.4602 13.18C19.4902 12.95 19.5002 12.73 19.5002 12.5ZM12.0402 16C10.1102 16 8.54015 14.43 8.54015 12.5C8.54015 10.57 10.1102 9 12.0402 9C13.9702 9 15.5402 10.57 15.5402 12.5C15.5402 14.43 13.9702 16 12.0402 16Z" fill="#6420AA"/>
</svg>
