<?xml version="1.0" encoding="utf-8"?>
<!-- Generator: Adobe Illustrator 22.1.0, SVG Export Plug-In . SVG Version: 6.00 Build 0)  -->
<svg version="1.1" id="Layer_1" xmlns="http://www.w3.org/2000/svg" xmlns:xlink="http://www.w3.org/1999/xlink" x="0px" y="0px"
	 viewBox="0 0 18.1 16.9" style="enable-background:new 0 0 18.1 16.9;" xml:space="preserve">
<style type="text/css">
	.st0{fill:#8B8D99;enable-background:new    ;}
</style>
<path id="Union_1" d="M0.7,16.9c-0.2,0-0.4,0-0.5-0.2C0,16.6,0,16.4,0,16.2c0-2,0.8-3.9,2.2-5.3c1-1,2.2-1.7,3.6-2.2
	c0,0,0,0,0,0c0,0-0.1-0.1-0.1-0.1C5.6,8.6,5.4,8.5,5.3,8.4C4.6,7.8,4.1,7,3.8,6.2c-0.3-0.9-0.2-1.8,0-2.7c0.2-0.9,0.7-1.7,1.4-2.3
	c0.7-0.6,1.5-1,2.4-1.2c0.1,0,0.2,0,0.3-0.1L8,0h0.8C8.9,0,9,0,9.1,0c0.2,0,0.4,0.1,0.6,0.1c2.6,0.7,4.1,3.3,3.4,5.8
	c-0.2,0.6-0.5,1.2-0.9,1.8c-0.8,1-1.9,1.6-3.1,1.8c-0.3,0-0.5,0-0.8,0c-0.2,0-0.4,0-0.6,0C6.4,9.7,5,10.2,3.9,11
	C2.8,11.8,2,13,1.5,14.3c-0.2,0.5-0.3,1-0.3,1.5h8.6c0.2,0,0.4,0.1,0.5,0.2c0.1,0.1,0.1,0.3,0.1,0.5c-0.1,0.2-0.3,0.4-0.5,0.4
	c0,0-0.1,0-0.1,0c0,0-0.1,0-0.1,0L0.7,16.9z M4.8,4.8c0,2,1.6,3.6,3.6,3.6S12,6.8,12,4.8c0-2-1.6-3.6-3.6-3.6h0
	C6.5,1.2,4.9,2.8,4.8,4.8z M16.5,16.3l-2-1c-0.1,0-0.1,0-0.2,0l-2,1c-0.1,0-0.2,0-0.2-0.1c0,0,0-0.1,0-0.1l0.4-2.2
	c0-0.1,0-0.1-0.1-0.1l-1.6-1.6c-0.1-0.1-0.1-0.2,0-0.2c0,0,0.1,0,0.1-0.1l2.2-0.3c0.1,0,0.1,0,0.1-0.1l1-2c0-0.1,0.1-0.1,0.2-0.1
	c0,0,0.1,0,0.1,0.1l1,2c0,0,0.1,0.1,0.1,0.1l2.2,0.3c0.1,0,0.2,0.1,0.2,0.2c0,0,0,0.1-0.1,0.1l-1.6,1.6c0,0-0.1,0.1,0,0.1l0.4,2.2
	c0,0.1,0,0.2-0.1,0.2C16.6,16.4,16.6,16.4,16.5,16.3C16.6,16.4,16.5,16.3,16.5,16.3z"/>
</svg>
