<svg width="24" height="25" viewBox="0 0 24 25" fill="none" xmlns="http://www.w3.org/2000/svg">
<path d="M4.47656 5.2799H19.4766C19.6518 5.27982 19.8268 5.29094 20.0006 5.31318C19.9417 4.89964 19.7997 4.50231 19.583 4.14515C19.3664 3.78799 19.0797 3.47839 18.7402 3.23503C18.4007 2.99167 18.0154 2.81958 17.6076 2.72914C17.1998 2.6387 16.7779 2.63179 16.3673 2.70881L4.03125 4.8149H4.01719C3.24285 4.96298 2.55425 5.40109 2.09203 6.03975C2.7884 5.54443 3.622 5.2788 4.47656 5.2799ZM19.4766 6.4049H4.47656C3.68118 6.40577 2.91862 6.72212 2.3562 7.28454C1.79378 7.84696 1.47743 8.60952 1.47656 9.4049V18.4049C1.47743 19.2003 1.79378 19.9628 2.3562 20.5253C2.91862 21.0877 3.68118 21.404 4.47656 21.4049H19.4766C20.2719 21.404 21.0345 21.0877 21.5969 20.5253C22.1593 19.9628 22.4757 19.2003 22.4766 18.4049V9.4049C22.4757 8.60952 22.1593 7.84696 21.5969 7.28454C21.0345 6.72212 20.2719 6.40577 19.4766 6.4049ZM17.25 15.4049C16.9533 15.4049 16.6633 15.3169 16.4166 15.1521C16.17 14.9873 15.9777 14.753 15.8642 14.4789C15.7506 14.2048 15.7209 13.9032 15.7788 13.6123C15.8367 13.3213 15.9796 13.054 16.1893 12.8442C16.3991 12.6345 16.6664 12.4916 16.9574 12.4337C17.2483 12.3758 17.5499 12.4056 17.824 12.5191C18.0981 12.6326 18.3324 12.8249 18.4972 13.0715C18.662 13.3182 18.75 13.6082 18.75 13.9049C18.75 14.3027 18.592 14.6843 18.3107 14.9656C18.0294 15.2469 17.6478 15.4049 17.25 15.4049Z" fill="white"/>
<path d="M1.5 12.569V7.90491C1.5 6.88913 2.0625 5.18616 4.01484 4.81725C5.67188 4.50647 7.3125 4.50647 7.3125 4.50647C7.3125 4.50647 8.39062 5.25647 7.5 5.25647C6.60938 5.25647 6.63281 6.40491 7.5 6.40491C8.36719 6.40491 7.5 7.50647 7.5 7.50647L4.00781 11.4674L1.5 12.569Z" fill="white"/>
</svg>
